999
"DXF R12 Output" (www.mydxf.blogspot.com)
 0 
SECTION
 2 
HEADER
 9 
$ACADVER
 1 
AC1009
 9 
$EXTMIN
 10 
 0 
 20 
 0 
 9 
$EXTMAX
 10 
 8.5 
 20 
 11 
 0 
ENDSEC
 0 
SECTION
 2 
ENTITIES
0
POLYLINE
8
Layer 1
62
10
70
0
10
0.000000
20
0.000000
66
1
0
VERTEX
8
Layer 1
10
-89.948997
20
92.216999
70
0
0
VERTEX
8
Layer 1
10
-90.000000
20
93.000000
70
0
0
VERTEX
8
Layer 1
10
-89.999802
20
93.003000
70
0
0
VERTEX
8
Layer 1
10
-90.000000
20
93.003000
70
0
0
VERTEX
8
Layer 1
10
-90.000000
20
145.000000
70
0
0
VERTEX
8
Layer 1
10
-90.000000
20
145.727997
70
0
0
VERTEX
8
Layer 1
10
-90.000000
20
150.998001
70
0
0
VERTEX
8
Layer 1
10
-89.999870
20
150.998001
70
0
0
VERTEX
8
Layer 1
10
-90.000000
20
151.000000
70
0
0
VERTEX
8
Layer 1
10
-89.948997
20
151.782997
70
0
0
VERTEX
8
Layer 1
10
-89.795998
20
152.553001
70
0
0
VERTEX
8
Layer 1
10
-89.542999
20
153.295998
70
0
0
VERTEX
8
Layer 1
10
-89.235435
20
153.919998
70
0
0
VERTEX
8
Layer 1
10
-89.195999
20
154.000000
70
0
0
VERTEX
8
Layer 1
10
-88.760002
20
154.653000
70
0
0
VERTEX
8
Layer 1
10
-88.242996
20
155.242996
70
0
0
VERTEX
8
Layer 1
10
-87.653000
20
155.760002
70
0
0
VERTEX
8
Layer 1
10
-87.000000
20
156.195999
70
0
0
VERTEX
8
Layer 1
10
-86.295998
20
156.542999
70
0
0
VERTEX
8
Layer 1
10
-85.553001
20
156.795998
70
0
0
VERTEX
8
Layer 1
10
-84.782997
20
156.948997
70
0
0
VERTEX
8
Layer 1
10
-84.000000
20
157.000000
70
0
0
VERTEX
8
Layer 1
10
-83.998001
20
156.999870
70
0
0
VERTEX
8
Layer 1
10
-83.998001
20
157.000000
70
0
0
VERTEX
8
Layer 1
10
-83.473663
20
157.000000
70
0
0
VERTEX
8
Layer 1
10
-83.046097
20
157.000000
70
0
0
VERTEX
8
Layer 1
10
-81.919998
20
157.000000
70
0
0
VERTEX
8
Layer 1
10
-81.762085
20
157.000000
70
0
0
VERTEX
8
Layer 1
10
-81.296608
20
157.000000
70
0
0
VERTEX
8
Layer 1
10
-80.807060
20
157.000000
70
0
0
VERTEX
8
Layer 1
10
-80.282692
20
157.000000
70
0
0
VERTEX
8
Layer 1
10
-78.000000
20
157.000000
70
0
0
VERTEX
8
Layer 1
10
-12.000000
20
157.000000
70
0
0
VERTEX
8
Layer 1
10
-8.192000
20
157.000000
70
0
0
VERTEX
8
Layer 1
10
-6.003000
20
157.000000
70
0
0
VERTEX
8
Layer 1
10
-6.003000
20
156.999802
70
0
0
VERTEX
8
Layer 1
10
-6.000000
20
157.000000
70
0
0
VERTEX
8
Layer 1
10
-5.217000
20
156.948997
70
0
0
VERTEX
8
Layer 1
10
-4.447000
20
156.795998
70
0
0
VERTEX
8
Layer 1
10
-3.704000
20
156.542999
70
0
0
VERTEX
8
Layer 1
10
-3.000000
20
156.195999
70
0
0
VERTEX
8
Layer 1
10
-2.347000
20
155.760002
70
0
0
VERTEX
8
Layer 1
10
-1.757000
20
155.242996
70
0
0
VERTEX
8
Layer 1
10
-1.240000
20
154.653000
70
0
0
VERTEX
8
Layer 1
10
-0.804000
20
154.000000
70
0
0
VERTEX
8
Layer 1
10
-0.764568
20
153.919998
70
0
0
VERTEX
8
Layer 1
10
-0.457000
20
153.295998
70
0
0
VERTEX
8
Layer 1
10
-0.204000
20
152.553001
70
0
0
VERTEX
8
Layer 1
10
-0.051000
20
151.782997
70
0
0
VERTEX
8
Layer 1
10
0.000000
20
151.000000
70
0
0
VERTEX
8
Layer 1
10
-0.000130
20
150.998001
70
0
0
VERTEX
8
Layer 1
10
0.000000
20
150.998001
70
0
0
VERTEX
8
Layer 1
10
0.000000
20
150.473663
70
0
0
VERTEX
8
Layer 1
10
0.000000
20
150.046097
70
0
0
VERTEX
8
Layer 1
10
0.000000
20
149.631172
70
0
0
VERTEX
8
Layer 1
10
0.000000
20
149.204155
70
0
0
VERTEX
8
Layer 1
10
-0.000000
20
148.762085
70
0
0
VERTEX
8
Layer 1
10
0.000000
20
148.296608
70
0
0
VERTEX
8
Layer 1
10
0.000000
20
147.807060
70
0
0
VERTEX
8
Layer 1
10
0.000000
20
147.282692
70
0
0
VERTEX
8
Layer 1
10
0.000000
20
145.727997
70
0
0
VERTEX
8
Layer 1
10
0.000000
20
145.390808
70
0
0
VERTEX
8
Layer 1
10
0.000000
20
145.000000
70
0
0
VERTEX
8
Layer 1
10
0.000000
20
99.000000
70
0
0
VERTEX
8
Layer 1
10
0.000000
20
96.576000
70
0
0
VERTEX
8
Layer 1
10
0.000000
20
93.003000
70
0
0
VERTEX
8
Layer 1
10
-0.000195
20
93.003000
70
0
0
VERTEX
8
Layer 1
10
0.000000
20
93.000000
70
0
0
VERTEX
8
Layer 1
10
-0.051000
20
92.216999
70
0
0
VERTEX
8
Layer 1
10
-0.204000
20
91.447001
70
0
0
VERTEX
8
Layer 1
10
-0.271762
20
91.247999
70
0
0
VERTEX
8
Layer 1
10
-0.457000
20
90.704000
70
0
0
VERTEX
8
Layer 1
10
-0.804000
20
90.000000
70
0
0
VERTEX
8
Layer 1
10
-1.240000
20
89.347000
70
0
0
VERTEX
8
Layer 1
10
-1.757000
20
88.757000
70
0
0
VERTEX
8
Layer 1
10
-2.182667
20
88.384001
70
0
0
VERTEX
8
Layer 1
10
-2.347000
20
88.240000
70
0
0
VERTEX
8
Layer 1
10
-3.000000
20
87.804000
70
0
0
VERTEX
8
Layer 1
10
-3.704000
20
87.457000
70
0
0
VERTEX
8
Layer 1
10
-4.447000
20
87.204000
70
0
0
VERTEX
8
Layer 1
10
-5.217000
20
87.051000
70
0
0
VERTEX
8
Layer 1
10
-6.000000
20
87.000000
70
0
0
VERTEX
8
Layer 1
10
-6.003000
20
87.000196
70
0
0
VERTEX
8
Layer 1
10
-6.003000
20
87.000000
70
0
0
VERTEX
8
Layer 1
10
-6.526333
20
87.000000
70
0
0
VERTEX
8
Layer 1
10
-6.953901
20
87.000000
70
0
0
VERTEX
8
Layer 1
10
-7.368830
20
87.000000
70
0
0
VERTEX
8
Layer 1
10
-7.795844
20
87.000000
70
0
0
VERTEX
8
Layer 1
10
-8.237913
20
87.000000
70
0
0
VERTEX
8
Layer 1
10
-12.000000
20
87.000000
70
0
0
VERTEX
8
Layer 1
10
-83.998001
20
87.000000
70
0
0
VERTEX
8
Layer 1
10
-83.998001
20
87.000131
70
0
0
VERTEX
8
Layer 1
10
-84.000000
20
87.000000
70
0
0
VERTEX
8
Layer 1
10
-84.782997
20
87.051000
70
0
0
VERTEX
8
Layer 1
10
-85.553001
20
87.204000
70
0
0
VERTEX
8
Layer 1
10
-86.295998
20
87.457000
70
0
0
VERTEX
8
Layer 1
10
-87.000000
20
87.804000
70
0
0
VERTEX
8
Layer 1
10
-87.653000
20
88.240000
70
0
0
VERTEX
8
Layer 1
10
-87.817329
20
88.384001
70
0
0
VERTEX
8
Layer 1
10
-88.242996
20
88.757000
70
0
0
VERTEX
8
Layer 1
10
-88.760002
20
89.347000
70
0
0
VERTEX
8
Layer 1
10
-89.195999
20
90.000000
70
0
0
VERTEX
8
Layer 1
10
-89.542999
20
90.704000
70
0
0
VERTEX
8
Layer 1
10
-89.795998
20
91.447001
70
0
0
VERTEX
8
Layer 1
10
-89.948997
20
92.216999
70
0
0
SEQEND
8
Layer 1
0
POLYLINE
8
Layer 1
62
10
70
0
10
0.000000
20
0.000000
66
1
0
VERTEX
8
Layer 1
10
-84.106003
20
91.261999
70
0
0
VERTEX
8
Layer 1
10
-83.998001
20
91.255398
70
0
0
VERTEX
8
Layer 1
10
-83.968002
20
91.253563
70
0
0
VERTEX
8
Layer 1
10
-83.876999
20
91.247999
70
0
0
VERTEX
8
Layer 1
10
-83.649002
20
91.261999
70
0
0
VERTEX
8
Layer 1
10
-83.424004
20
91.306999
70
0
0
VERTEX
8
Layer 1
10
-83.208000
20
91.381001
70
0
0
VERTEX
8
Layer 1
10
-83.001999
20
91.482000
70
0
0
VERTEX
8
Layer 1
10
-82.811996
20
91.608999
70
0
0
VERTEX
8
Layer 1
10
-82.639999
20
91.760000
70
0
0
VERTEX
8
Layer 1
10
-82.488998
20
91.931999
70
0
0
VERTEX
8
Layer 1
10
-82.362000
20
92.122999
70
0
0
VERTEX
8
Layer 1
10
-82.261002
20
92.327999
70
0
0
VERTEX
8
Layer 1
10
-82.209167
20
92.480000
70
0
0
VERTEX
8
Layer 1
10
-82.186996
20
92.545000
70
0
0
VERTEX
8
Layer 1
10
-82.141998
20
92.768999
70
0
0
VERTEX
8
Layer 1
10
-82.126999
20
92.997999
70
0
0
VERTEX
8
Layer 1
10
-82.141998
20
93.226000
70
0
0
VERTEX
8
Layer 1
10
-82.186996
20
93.451000
70
0
0
VERTEX
8
Layer 1
10
-82.261002
20
93.667000
70
0
0
VERTEX
8
Layer 1
10
-82.362000
20
93.872999
70
0
0
VERTEX
8
Layer 1
10
-82.488998
20
94.063000
70
0
0
VERTEX
8
Layer 1
10
-82.639999
20
94.235001
70
0
0
VERTEX
8
Layer 1
10
-82.811996
20
94.386000
70
0
0
VERTEX
8
Layer 1
10
-83.001999
20
94.513000
70
0
0
VERTEX
8
Layer 1
10
-83.032295
20
94.528000
70
0
0
VERTEX
8
Layer 1
10
-83.208000
20
94.615000
70
0
0
VERTEX
8
Layer 1
10
-83.424004
20
94.688000
70
0
0
VERTEX
8
Layer 1
10
-83.649002
20
94.733000
70
0
0
VERTEX
8
Layer 1
10
-83.876999
20
94.747999
70
0
0
VERTEX
8
Layer 1
10
-83.968002
20
94.742039
70
0
0
VERTEX
8
Layer 1
10
-83.998001
20
94.740074
70
0
0
VERTEX
8
Layer 1
10
-84.106003
20
94.733000
70
0
0
VERTEX
8
Layer 1
10
-84.330002
20
94.688000
70
0
0
VERTEX
8
Layer 1
10
-84.546997
20
94.615000
70
0
0
VERTEX
8
Layer 1
10
-84.721855
20
94.528000
70
0
0
VERTEX
8
Layer 1
10
-84.751999
20
94.513000
70
0
0
VERTEX
8
Layer 1
10
-84.943001
20
94.386000
70
0
0
VERTEX
8
Layer 1
10
-85.114998
20
94.235001
70
0
0
VERTEX
8
Layer 1
10
-85.265999
20
94.063000
70
0
0
VERTEX
8
Layer 1
10
-85.392998
20
93.872999
70
0
0
VERTEX
8
Layer 1
10
-85.494003
20
93.667000
70
0
0
VERTEX
8
Layer 1
10
-85.568001
20
93.451000
70
0
0
VERTEX
8
Layer 1
10
-85.612999
20
93.226000
70
0
0
VERTEX
8
Layer 1
10
-85.627670
20
93.003000
70
0
0
VERTEX
8
Layer 1
10
-85.627998
20
92.997999
70
0
0
VERTEX
8
Layer 1
10
-85.612999
20
92.768999
70
0
0
VERTEX
8
Layer 1
10
-85.568001
20
92.545000
70
0
0
VERTEX
8
Layer 1
10
-85.545837
20
92.480000
70
0
0
VERTEX
8
Layer 1
10
-85.494003
20
92.327999
70
0
0
VERTEX
8
Layer 1
10
-85.392998
20
92.122999
70
0
0
VERTEX
8
Layer 1
10
-85.265999
20
91.931999
70
0
0
VERTEX
8
Layer 1
10
-85.114998
20
91.760000
70
0
0
VERTEX
8
Layer 1
10
-84.943001
20
91.608999
70
0
0
VERTEX
8
Layer 1
10
-84.751999
20
91.482000
70
0
0
VERTEX
8
Layer 1
10
-84.546997
20
91.381001
70
0
0
VERTEX
8
Layer 1
10
-84.330002
20
91.306999
70
0
0
VERTEX
8
Layer 1
10
-84.106003
20
91.261999
70
0
0
SEQEND
8
Layer 1
0
POLYLINE
8
Layer 1
62
10
70
0
10
0.000000
20
0.000000
66
1
0
VERTEX
8
Layer 1
10
-62.550999
20
122.297001
70
0
0
VERTEX
8
Layer 1
10
-62.464001
20
122.253838
70
0
0
VERTEX
8
Layer 1
10
-62.422001
20
122.233002
70
0
0
VERTEX
8
Layer 1
10
-62.285999
20
122.187000
70
0
0
VERTEX
8
Layer 1
10
-62.230606
20
122.175999
70
0
0
VERTEX
8
Layer 1
10
-62.145000
20
122.159000
70
0
0
VERTEX
8
Layer 1
10
-62.000999
20
122.150002
70
0
0
VERTEX
8
Layer 1
10
-61.856998
20
122.159000
70
0
0
VERTEX
8
Layer 1
10
-61.771393
20
122.175999
70
0
0
VERTEX
8
Layer 1
10
-61.716000
20
122.187000
70
0
0
VERTEX
8
Layer 1
10
-61.580002
20
122.233002
70
0
0
VERTEX
8
Layer 1
10
-61.451000
20
122.297001
70
0
0
VERTEX
8
Layer 1
10
-61.439999
20
122.304333
70
0
0
VERTEX
8
Layer 1
10
-61.331001
20
122.376999
70
0
0
VERTEX
8
Layer 1
10
-61.223000
20
122.472000
70
0
0
VERTEX
8
Layer 1
10
-61.127998
20
122.580002
70
0
0
VERTEX
8
Layer 1
10
-61.048000
20
122.700001
70
0
0
VERTEX
8
Layer 1
10
-60.985001
20
122.828999
70
0
0
VERTEX
8
Layer 1
10
-60.938000
20
122.965000
70
0
0
VERTEX
8
Layer 1
10
-60.910000
20
123.105999
70
0
0
VERTEX
8
Layer 1
10
-60.904125
20
123.200001
70
0
0
VERTEX
8
Layer 1
10
-60.901001
20
123.250000
70
0
0
VERTEX
8
Layer 1
10
-60.910000
20
123.393002
70
0
0
VERTEX
8
Layer 1
10
-60.938000
20
123.534000
70
0
0
VERTEX
8
Layer 1
10
-60.985001
20
123.671001
70
0
0
VERTEX
8
Layer 1
10
-61.048000
20
123.799999
70
0
0
VERTEX
8
Layer 1
10
-61.127998
20
123.918999
70
0
0
VERTEX
8
Layer 1
10
-61.223000
20
124.028000
70
0
0
VERTEX
8
Layer 1
10
-61.331001
20
124.122002
70
0
0
VERTEX
8
Layer 1
10
-61.439999
20
124.194668
70
0
0
VERTEX
8
Layer 1
10
-61.451000
20
124.202000
70
0
0
VERTEX
8
Layer 1
10
-61.580002
20
124.265999
70
0
0
VERTEX
8
Layer 1
10
-61.716000
20
124.312000
70
0
0
VERTEX
8
Layer 1
10
-61.856998
20
124.340000
70
0
0
VERTEX
8
Layer 1
10
-62.000999
20
124.349998
70
0
0
VERTEX
8
Layer 1
10
-62.145000
20
124.340000
70
0
0
VERTEX
8
Layer 1
10
-62.285999
20
124.312000
70
0
0
VERTEX
8
Layer 1
10
-62.422001
20
124.265999
70
0
0
VERTEX
8
Layer 1
10
-62.464001
20
124.245163
70
0
0
VERTEX
8
Layer 1
10
-62.550999
20
124.202000
70
0
0
VERTEX
8
Layer 1
10
-62.671001
20
124.122002
70
0
0
VERTEX
8
Layer 1
10
-62.778999
20
124.028000
70
0
0
VERTEX
8
Layer 1
10
-62.874001
20
123.918999
70
0
0
VERTEX
8
Layer 1
10
-62.953999
20
123.799999
70
0
0
VERTEX
8
Layer 1
10
-63.016998
20
123.671001
70
0
0
VERTEX
8
Layer 1
10
-63.063999
20
123.534000
70
0
0
VERTEX
8
Layer 1
10
-63.091999
20
123.393002
70
0
0
VERTEX
8
Layer 1
10
-63.101002
20
123.250000
70
0
0
VERTEX
8
Layer 1
10
-63.097874
20
123.200001
70
0
0
VERTEX
8
Layer 1
10
-63.091999
20
123.105999
70
0
0
VERTEX
8
Layer 1
10
-63.063999
20
122.965000
70
0
0
VERTEX
8
Layer 1
10
-63.016998
20
122.828999
70
0
0
VERTEX
8
Layer 1
10
-62.953999
20
122.700001
70
0
0
VERTEX
8
Layer 1
10
-62.874001
20
122.580002
70
0
0
VERTEX
8
Layer 1
10
-62.778999
20
122.472000
70
0
0
VERTEX
8
Layer 1
10
-62.671001
20
122.376999
70
0
0
VERTEX
8
Layer 1
10
-62.550999
20
122.297001
70
0
0
SEQEND
8
Layer 1
0
POLYLINE
8
Layer 1
62
10
70
0
10
0.000000
20
0.000000
66
1
0
VERTEX
8
Layer 1
10
-55.422001
20
122.233002
70
0
0
VERTEX
8
Layer 1
10
-55.296001
20
122.190384
70
0
0
VERTEX
8
Layer 1
10
-55.285999
20
122.187000
70
0
0
VERTEX
8
Layer 1
10
-55.230606
20
122.175999
70
0
0
VERTEX
8
Layer 1
10
-55.145000
20
122.159000
70
0
0
VERTEX
8
Layer 1
10
-55.000999
20
122.150002
70
0
0
VERTEX
8
Layer 1
10
-54.856998
20
122.159000
70
0
0
VERTEX
8
Layer 1
10
-54.771393
20
122.175999
70
0
0
VERTEX
8
Layer 1
10
-54.716000
20
122.187000
70
0
0
VERTEX
8
Layer 1
10
-54.580002
20
122.233002
70
0
0
VERTEX
8
Layer 1
10
-54.451000
20
122.297001
70
0
0
VERTEX
8
Layer 1
10
-54.331001
20
122.376999
70
0
0
VERTEX
8
Layer 1
10
-54.223000
20
122.472000
70
0
0
VERTEX
8
Layer 1
10
-54.127998
20
122.580002
70
0
0
VERTEX
8
Layer 1
10
-54.048000
20
122.700001
70
0
0
VERTEX
8
Layer 1
10
-53.985001
20
122.828999
70
0
0
VERTEX
8
Layer 1
10
-53.938000
20
122.965000
70
0
0
VERTEX
8
Layer 1
10
-53.910000
20
123.105999
70
0
0
VERTEX
8
Layer 1
10
-53.904125
20
123.200001
70
0
0
VERTEX
8
Layer 1
10
-53.901001
20
123.250000
70
0
0
VERTEX
8
Layer 1
10
-53.910000
20
123.393002
70
0
0
VERTEX
8
Layer 1
10
-53.938000
20
123.534000
70
0
0
VERTEX
8
Layer 1
10
-53.985001
20
123.671001
70
0
0
VERTEX
8
Layer 1
10
-54.048000
20
123.799999
70
0
0
VERTEX
8
Layer 1
10
-54.127998
20
123.918999
70
0
0
VERTEX
8
Layer 1
10
-54.223000
20
124.028000
70
0
0
VERTEX
8
Layer 1
10
-54.271999
20
124.070648
70
0
0
VERTEX
8
Layer 1
10
-54.331001
20
124.122002
70
0
0
VERTEX
8
Layer 1
10
-54.451000
20
124.202000
70
0
0
VERTEX
8
Layer 1
10
-54.580002
20
124.265999
70
0
0
VERTEX
8
Layer 1
10
-54.716000
20
124.312000
70
0
0
VERTEX
8
Layer 1
10
-54.856998
20
124.340000
70
0
0
VERTEX
8
Layer 1
10
-55.000999
20
124.349998
70
0
0
VERTEX
8
Layer 1
10
-55.145000
20
124.340000
70
0
0
VERTEX
8
Layer 1
10
-55.285999
20
124.312000
70
0
0
VERTEX
8
Layer 1
10
-55.296001
20
124.308617
70
0
0
VERTEX
8
Layer 1
10
-55.422001
20
124.265999
70
0
0
VERTEX
8
Layer 1
10
-55.550999
20
124.202000
70
0
0
VERTEX
8
Layer 1
10
-55.671001
20
124.122002
70
0
0
VERTEX
8
Layer 1
10
-55.778999
20
124.028000
70
0
0
VERTEX
8
Layer 1
10
-55.874001
20
123.918999
70
0
0
VERTEX
8
Layer 1
10
-55.953999
20
123.799999
70
0
0
VERTEX
8
Layer 1
10
-56.016998
20
123.671001
70
0
0
VERTEX
8
Layer 1
10
-56.063999
20
123.534000
70
0
0
VERTEX
8
Layer 1
10
-56.091999
20
123.393002
70
0
0
VERTEX
8
Layer 1
10
-56.101002
20
123.250000
70
0
0
VERTEX
8
Layer 1
10
-56.097874
20
123.200001
70
0
0
VERTEX
8
Layer 1
10
-56.091999
20
123.105999
70
0
0
VERTEX
8
Layer 1
10
-56.063999
20
122.965000
70
0
0
VERTEX
8
Layer 1
10
-56.016998
20
122.828999
70
0
0
VERTEX
8
Layer 1
10
-55.953999
20
122.700001
70
0
0
VERTEX
8
Layer 1
10
-55.874001
20
122.580002
70
0
0
VERTEX
8
Layer 1
10
-55.778999
20
122.472000
70
0
0
VERTEX
8
Layer 1
10
-55.671001
20
122.376999
70
0
0
VERTEX
8
Layer 1
10
-55.550999
20
122.297001
70
0
0
VERTEX
8
Layer 1
10
-55.422001
20
122.233002
70
0
0
SEQEND
8
Layer 1
0
POLYLINE
8
Layer 1
62
10
70
0
10
0.000000
20
0.000000
66
1
0
VERTEX
8
Layer 1
10
-49.473122
20
121.152000
70
0
0
VERTEX
8
Layer 1
10
-49.390999
20
121.207001
70
0
0
VERTEX
8
Layer 1
10
-49.292999
20
121.292999
70
0
0
VERTEX
8
Layer 1
10
-49.207001
20
121.390999
70
0
0
VERTEX
8
Layer 1
10
-49.152000
20
121.473122
70
0
0
VERTEX
8
Layer 1
10
-49.133999
20
121.500000
70
0
0
VERTEX
8
Layer 1
10
-49.076000
20
121.617001
70
0
0
VERTEX
8
Layer 1
10
-49.034000
20
121.741001
70
0
0
VERTEX
8
Layer 1
10
-49.000000
20
122.000000
70
0
0
VERTEX
8
Layer 1
10
-49.005245
20
122.076332
70
0
0
VERTEX
8
Layer 1
10
-49.019432
20
122.184418
70
0
0
VERTEX
8
Layer 1
10
-49.034000
20
122.258999
70
0
0
VERTEX
8
Layer 1
10
-49.076000
20
122.382999
70
0
0
VERTEX
8
Layer 1
10
-49.133999
20
122.500000
70
0
0
VERTEX
8
Layer 1
10
-49.152000
20
122.526878
70
0
0
VERTEX
8
Layer 1
10
-49.207001
20
122.609001
70
0
0
VERTEX
8
Layer 1
10
-49.292999
20
122.707001
70
0
0
VERTEX
8
Layer 1
10
-49.390999
20
122.792999
70
0
0
VERTEX
8
Layer 1
10
-49.500000
20
122.866001
70
0
0
VERTEX
8
Layer 1
10
-49.617001
20
122.924000
70
0
0
VERTEX
8
Layer 1
10
-49.741001
20
122.966000
70
0
0
VERTEX
8
Layer 1
10
-50.000000
20
123.000000
70
0
0
VERTEX
8
Layer 1
10
-50.175999
20
122.976894
70
0
0
VERTEX
8
Layer 1
10
-50.258999
20
122.966000
70
0
0
VERTEX
8
Layer 1
10
-50.382999
20
122.924000
70
0
0
VERTEX
8
Layer 1
10
-50.500000
20
122.866001
70
0
0
VERTEX
8
Layer 1
10
-50.609001
20
122.792999
70
0
0
VERTEX
8
Layer 1
10
-50.707001
20
122.707001
70
0
0
VERTEX
8
Layer 1
10
-50.792999
20
122.609001
70
0
0
VERTEX
8
Layer 1
10
-50.866001
20
122.500000
70
0
0
VERTEX
8
Layer 1
10
-50.924000
20
122.382999
70
0
0
VERTEX
8
Layer 1
10
-50.966000
20
122.258999
70
0
0
VERTEX
8
Layer 1
10
-50.976433
20
122.205582
70
0
0
VERTEX
8
Layer 1
10
-50.980316
20
122.175999
70
0
0
VERTEX
8
Layer 1
10
-50.996243
20
122.054668
70
0
0
VERTEX
8
Layer 1
10
-51.000000
20
122.000000
70
0
0
VERTEX
8
Layer 1
10
-50.994755
20
121.923668
70
0
0
VERTEX
8
Layer 1
10
-50.980568
20
121.815582
70
0
0
VERTEX
8
Layer 1
10
-50.966000
20
121.741001
70
0
0
VERTEX
8
Layer 1
10
-50.924000
20
121.617001
70
0
0
VERTEX
8
Layer 1
10
-50.866001
20
121.500000
70
0
0
VERTEX
8
Layer 1
10
-50.792999
20
121.390999
70
0
0
VERTEX
8
Layer 1
10
-50.707001
20
121.292999
70
0
0
VERTEX
8
Layer 1
10
-50.609001
20
121.207001
70
0
0
VERTEX
8
Layer 1
10
-50.526878
20
121.152000
70
0
0
VERTEX
8
Layer 1
10
-50.500000
20
121.133999
70
0
0
VERTEX
8
Layer 1
10
-50.382999
20
121.076000
70
0
0
VERTEX
8
Layer 1
10
-50.258999
20
121.034000
70
0
0
VERTEX
8
Layer 1
10
-50.000000
20
121.000000
70
0
0
VERTEX
8
Layer 1
10
-49.923668
20
121.005245
70
0
0
VERTEX
8
Layer 1
10
-49.815582
20
121.019432
70
0
0
VERTEX
8
Layer 1
10
-49.741001
20
121.034000
70
0
0
VERTEX
8
Layer 1
10
-49.617001
20
121.076000
70
0
0
VERTEX
8
Layer 1
10
-49.500000
20
121.133999
70
0
0
VERTEX
8
Layer 1
10
-49.473122
20
121.152000
70
0
0
SEQEND
8
Layer 1
0
POLYLINE
8
Layer 1
62
10
70
0
10
0.000000
20
0.000000
66
1
0
VERTEX
8
Layer 1
10
-45.056000
20
121.003849
70
0
0
VERTEX
8
Layer 1
10
-45.000000
20
121.000000
70
0
0
VERTEX
8
Layer 1
10
-44.923668
20
121.005245
70
0
0
VERTEX
8
Layer 1
10
-44.815582
20
121.019432
70
0
0
VERTEX
8
Layer 1
10
-44.741001
20
121.034000
70
0
0
VERTEX
8
Layer 1
10
-44.617001
20
121.076000
70
0
0
VERTEX
8
Layer 1
10
-44.500000
20
121.133999
70
0
0
VERTEX
8
Layer 1
10
-44.473122
20
121.152000
70
0
0
VERTEX
8
Layer 1
10
-44.390999
20
121.207001
70
0
0
VERTEX
8
Layer 1
10
-44.292999
20
121.292999
70
0
0
VERTEX
8
Layer 1
10
-44.207001
20
121.390999
70
0
0
VERTEX
8
Layer 1
10
-44.133999
20
121.500000
70
0
0
VERTEX
8
Layer 1
10
-44.076000
20
121.617001
70
0
0
VERTEX
8
Layer 1
10
-44.034000
20
121.741001
70
0
0
VERTEX
8
Layer 1
10
-44.019432
20
121.815582
70
0
0
VERTEX
8
Layer 1
10
-44.005245
20
121.923668
70
0
0
VERTEX
8
Layer 1
10
-44.000000
20
122.000000
70
0
0
VERTEX
8
Layer 1
10
-44.023106
20
122.175999
70
0
0
VERTEX
8
Layer 1
10
-44.034000
20
122.258999
70
0
0
VERTEX
8
Layer 1
10
-44.076000
20
122.382999
70
0
0
VERTEX
8
Layer 1
10
-44.133999
20
122.500000
70
0
0
VERTEX
8
Layer 1
10
-44.207001
20
122.609001
70
0
0
VERTEX
8
Layer 1
10
-44.292999
20
122.707001
70
0
0
VERTEX
8
Layer 1
10
-44.390999
20
122.792999
70
0
0
VERTEX
8
Layer 1
10
-44.500000
20
122.866001
70
0
0
VERTEX
8
Layer 1
10
-44.617001
20
122.924000
70
0
0
VERTEX
8
Layer 1
10
-44.741001
20
122.966000
70
0
0
VERTEX
8
Layer 1
10
-45.000000
20
123.000000
70
0
0
VERTEX
8
Layer 1
10
-45.054668
20
122.996243
70
0
0
VERTEX
8
Layer 1
10
-45.056000
20
122.996071
70
0
0
VERTEX
8
Layer 1
10
-45.205582
20
122.976433
70
0
0
VERTEX
8
Layer 1
10
-45.258999
20
122.966000
70
0
0
VERTEX
8
Layer 1
10
-45.382999
20
122.924000
70
0
0
VERTEX
8
Layer 1
10
-45.500000
20
122.866001
70
0
0
VERTEX
8
Layer 1
10
-45.609001
20
122.792999
70
0
0
VERTEX
8
Layer 1
10
-45.707001
20
122.707001
70
0
0
VERTEX
8
Layer 1
10
-45.792999
20
122.609001
70
0
0
VERTEX
8
Layer 1
10
-45.866001
20
122.500000
70
0
0
VERTEX
8
Layer 1
10
-45.924000
20
122.382999
70
0
0
VERTEX
8
Layer 1
10
-45.966000
20
122.258999
70
0
0
VERTEX
8
Layer 1
10
-45.976894
20
122.175999
70
0
0
VERTEX
8
Layer 1
10
-46.000000
20
122.000000
70
0
0
VERTEX
8
Layer 1
10
-45.966000
20
121.741001
70
0
0
VERTEX
8
Layer 1
10
-45.924000
20
121.617001
70
0
0
VERTEX
8
Layer 1
10
-45.866001
20
121.500000
70
0
0
VERTEX
8
Layer 1
10
-45.792999
20
121.390999
70
0
0
VERTEX
8
Layer 1
10
-45.707001
20
121.292999
70
0
0
VERTEX
8
Layer 1
10
-45.609001
20
121.207001
70
0
0
VERTEX
8
Layer 1
10
-45.526878
20
121.152000
70
0
0
VERTEX
8
Layer 1
10
-45.500000
20
121.133999
70
0
0
VERTEX
8
Layer 1
10
-45.382999
20
121.076000
70
0
0
VERTEX
8
Layer 1
10
-45.258999
20
121.034000
70
0
0
VERTEX
8
Layer 1
10
-45.184418
20
121.019432
70
0
0
VERTEX
8
Layer 1
10
-45.076332
20
121.005245
70
0
0
VERTEX
8
Layer 1
10
-45.056000
20
121.003849
70
0
0
SEQEND
8
Layer 1
0
POLYLINE
8
Layer 1
62
10
70
0
10
0.000000
20
0.000000
66
1
0
VERTEX
8
Layer 1
10
-40.258999
20
121.034000
70
0
0
VERTEX
8
Layer 1
10
-40.000000
20
121.000000
70
0
0
VERTEX
8
Layer 1
10
-39.741001
20
121.034000
70
0
0
VERTEX
8
Layer 1
10
-39.617001
20
121.076000
70
0
0
VERTEX
8
Layer 1
10
-39.500000
20
121.133999
70
0
0
VERTEX
8
Layer 1
10
-39.473122
20
121.152000
70
0
0
VERTEX
8
Layer 1
10
-39.390999
20
121.207001
70
0
0
VERTEX
8
Layer 1
10
-39.292999
20
121.292999
70
0
0
VERTEX
8
Layer 1
10
-39.207001
20
121.390999
70
0
0
VERTEX
8
Layer 1
10
-39.133999
20
121.500000
70
0
0
VERTEX
8
Layer 1
10
-39.076000
20
121.617001
70
0
0
VERTEX
8
Layer 1
10
-39.034000
20
121.741001
70
0
0
VERTEX
8
Layer 1
10
-39.019432
20
121.815582
70
0
0
VERTEX
8
Layer 1
10
-39.005245
20
121.923668
70
0
0
VERTEX
8
Layer 1
10
-39.000000
20
122.000000
70
0
0
VERTEX
8
Layer 1
10
-39.023106
20
122.175999
70
0
0
VERTEX
8
Layer 1
10
-39.034000
20
122.258999
70
0
0
VERTEX
8
Layer 1
10
-39.076000
20
122.382999
70
0
0
VERTEX
8
Layer 1
10
-39.133999
20
122.500000
70
0
0
VERTEX
8
Layer 1
10
-39.207001
20
122.609001
70
0
0
VERTEX
8
Layer 1
10
-39.292999
20
122.707001
70
0
0
VERTEX
8
Layer 1
10
-39.390999
20
122.792999
70
0
0
VERTEX
8
Layer 1
10
-39.500000
20
122.866001
70
0
0
VERTEX
8
Layer 1
10
-39.617001
20
122.924000
70
0
0
VERTEX
8
Layer 1
10
-39.741001
20
122.966000
70
0
0
VERTEX
8
Layer 1
10
-39.936001
20
122.991600
70
0
0
VERTEX
8
Layer 1
10
-40.000000
20
123.000000
70
0
0
VERTEX
8
Layer 1
10
-40.258999
20
122.966000
70
0
0
VERTEX
8
Layer 1
10
-40.382999
20
122.924000
70
0
0
VERTEX
8
Layer 1
10
-40.500000
20
122.866001
70
0
0
VERTEX
8
Layer 1
10
-40.609001
20
122.792999
70
0
0
VERTEX
8
Layer 1
10
-40.707001
20
122.707001
70
0
0
VERTEX
8
Layer 1
10
-40.792999
20
122.609001
70
0
0
VERTEX
8
Layer 1
10
-40.866001
20
122.500000
70
0
0
VERTEX
8
Layer 1
10
-40.924000
20
122.382999
70
0
0
VERTEX
8
Layer 1
10
-40.959999
20
122.276714
70
0
0
VERTEX
8
Layer 1
10
-40.966000
20
122.258999
70
0
0
VERTEX
8
Layer 1
10
-41.000000
20
122.000000
70
0
0
VERTEX
8
Layer 1
10
-40.966000
20
121.741001
70
0
0
VERTEX
8
Layer 1
10
-40.959999
20
121.723286
70
0
0
VERTEX
8
Layer 1
10
-40.924000
20
121.617001
70
0
0
VERTEX
8
Layer 1
10
-40.866001
20
121.500000
70
0
0
VERTEX
8
Layer 1
10
-40.792999
20
121.390999
70
0
0
VERTEX
8
Layer 1
10
-40.707001
20
121.292999
70
0
0
VERTEX
8
Layer 1
10
-40.609001
20
121.207001
70
0
0
VERTEX
8
Layer 1
10
-40.526878
20
121.152000
70
0
0
VERTEX
8
Layer 1
10
-40.500000
20
121.133999
70
0
0
VERTEX
8
Layer 1
10
-40.382999
20
121.076000
70
0
0
VERTEX
8
Layer 1
10
-40.258999
20
121.034000
70
0
0
SEQEND
8
Layer 1
0
POLYLINE
8
Layer 1
62
10
70
0
10
0.000000
20
0.000000
66
1
0
VERTEX
8
Layer 1
10
-36.062000
20
122.965000
70
0
0
VERTEX
8
Layer 1
10
-36.014999
20
122.828999
70
0
0
VERTEX
8
Layer 1
10
-35.952000
20
122.700001
70
0
0
VERTEX
8
Layer 1
10
-35.872002
20
122.580002
70
0
0
VERTEX
8
Layer 1
10
-35.777000
20
122.472000
70
0
0
VERTEX
8
Layer 1
10
-35.668999
20
122.376999
70
0
0
VERTEX
8
Layer 1
10
-35.549000
20
122.297001
70
0
0
VERTEX
8
Layer 1
10
-35.419998
20
122.233002
70
0
0
VERTEX
8
Layer 1
10
-35.284000
20
122.187000
70
0
0
VERTEX
8
Layer 1
10
-35.143002
20
122.159000
70
0
0
VERTEX
8
Layer 1
10
-34.999001
20
122.150002
70
0
0
VERTEX
8
Layer 1
10
-34.855000
20
122.159000
70
0
0
VERTEX
8
Layer 1
10
-34.816002
20
122.166744
70
0
0
VERTEX
8
Layer 1
10
-34.714001
20
122.187000
70
0
0
VERTEX
8
Layer 1
10
-34.577999
20
122.233002
70
0
0
VERTEX
8
Layer 1
10
-34.449001
20
122.297001
70
0
0
VERTEX
8
Layer 1
10
-34.328999
20
122.376999
70
0
0
VERTEX
8
Layer 1
10
-34.221001
20
122.472000
70
0
0
VERTEX
8
Layer 1
10
-34.125999
20
122.580002
70
0
0
VERTEX
8
Layer 1
10
-34.046001
20
122.700001
70
0
0
VERTEX
8
Layer 1
10
-33.983002
20
122.828999
70
0
0
VERTEX
8
Layer 1
10
-33.936001
20
122.965000
70
0
0
VERTEX
8
Layer 1
10
-33.908001
20
123.105999
70
0
0
VERTEX
8
Layer 1
10
-33.902126
20
123.200001
70
0
0
VERTEX
8
Layer 1
10
-33.898998
20
123.250000
70
0
0
VERTEX
8
Layer 1
10
-33.908001
20
123.393002
70
0
0
VERTEX
8
Layer 1
10
-33.936001
20
123.534000
70
0
0
VERTEX
8
Layer 1
10
-33.983002
20
123.671001
70
0
0
VERTEX
8
Layer 1
10
-34.046001
20
123.799999
70
0
0
VERTEX
8
Layer 1
10
-34.125999
20
123.918999
70
0
0
VERTEX
8
Layer 1
10
-34.221001
20
124.028000
70
0
0
VERTEX
8
Layer 1
10
-34.328999
20
124.122002
70
0
0
VERTEX
8
Layer 1
10
-34.449001
20
124.202000
70
0
0
VERTEX
8
Layer 1
10
-34.577999
20
124.265999
70
0
0
VERTEX
8
Layer 1
10
-34.714001
20
124.312000
70
0
0
VERTEX
8
Layer 1
10
-34.816002
20
124.332256
70
0
0
VERTEX
8
Layer 1
10
-34.855000
20
124.340000
70
0
0
VERTEX
8
Layer 1
10
-34.999001
20
124.349998
70
0
0
VERTEX
8
Layer 1
10
-35.143002
20
124.340000
70
0
0
VERTEX
8
Layer 1
10
-35.284000
20
124.312000
70
0
0
VERTEX
8
Layer 1
10
-35.419998
20
124.265999
70
0
0
VERTEX
8
Layer 1
10
-35.549000
20
124.202000
70
0
0
VERTEX
8
Layer 1
10
-35.668999
20
124.122002
70
0
0
VERTEX
8
Layer 1
10
-35.777000
20
124.028000
70
0
0
VERTEX
8
Layer 1
10
-35.872002
20
123.918999
70
0
0
VERTEX
8
Layer 1
10
-35.952000
20
123.799999
70
0
0
VERTEX
8
Layer 1
10
-36.014999
20
123.671001
70
0
0
VERTEX
8
Layer 1
10
-36.062000
20
123.534000
70
0
0
VERTEX
8
Layer 1
10
-36.090000
20
123.393002
70
0
0
VERTEX
8
Layer 1
10
-36.098999
20
123.250000
70
0
0
VERTEX
8
Layer 1
10
-36.095875
20
123.200001
70
0
0
VERTEX
8
Layer 1
10
-36.090000
20
123.105999
70
0
0
VERTEX
8
Layer 1
10
-36.062000
20
122.965000
70
0
0
SEQEND
8
Layer 1
0
POLYLINE
8
Layer 1
62
10
70
0
10
0.000000
20
0.000000
66
1
0
VERTEX
8
Layer 1
10
-28.777000
20
122.472000
70
0
0
VERTEX
8
Layer 1
10
-28.672001
20
122.379639
70
0
0
VERTEX
8
Layer 1
10
-28.669001
20
122.376999
70
0
0
VERTEX
8
Layer 1
10
-28.549000
20
122.297001
70
0
0
VERTEX
8
Layer 1
10
-28.420000
20
122.233002
70
0
0
VERTEX
8
Layer 1
10
-28.284000
20
122.187000
70
0
0
VERTEX
8
Layer 1
10
-28.228607
20
122.175999
70
0
0
VERTEX
8
Layer 1
10
-28.143000
20
122.159000
70
0
0
VERTEX
8
Layer 1
10
-27.999001
20
122.150002
70
0
0
VERTEX
8
Layer 1
10
-27.855000
20
122.159000
70
0
0
VERTEX
8
Layer 1
10
-27.769392
20
122.175999
70
0
0
VERTEX
8
Layer 1
10
-27.714001
20
122.187000
70
0
0
VERTEX
8
Layer 1
10
-27.648001
20
122.209324
70
0
0
VERTEX
8
Layer 1
10
-27.577999
20
122.233002
70
0
0
VERTEX
8
Layer 1
10
-27.448999
20
122.297001
70
0
0
VERTEX
8
Layer 1
10
-27.329000
20
122.376999
70
0
0
VERTEX
8
Layer 1
10
-27.221001
20
122.472000
70
0
0
VERTEX
8
Layer 1
10
-27.125999
20
122.580002
70
0
0
VERTEX
8
Layer 1
10
-27.046000
20
122.700001
70
0
0
VERTEX
8
Layer 1
10
-26.983000
20
122.828999
70
0
0
VERTEX
8
Layer 1
10
-26.936001
20
122.965000
70
0
0
VERTEX
8
Layer 1
10
-26.908001
20
123.105999
70
0
0
VERTEX
8
Layer 1
10
-26.902124
20
123.200001
70
0
0
VERTEX
8
Layer 1
10
-26.899000
20
123.250000
70
0
0
VERTEX
8
Layer 1
10
-26.908001
20
123.393002
70
0
0
VERTEX
8
Layer 1
10
-26.936001
20
123.534000
70
0
0
VERTEX
8
Layer 1
10
-26.983000
20
123.671001
70
0
0
VERTEX
8
Layer 1
10
-27.046000
20
123.799999
70
0
0
VERTEX
8
Layer 1
10
-27.125999
20
123.918999
70
0
0
VERTEX
8
Layer 1
10
-27.221001
20
124.028000
70
0
0
VERTEX
8
Layer 1
10
-27.329000
20
124.122002
70
0
0
VERTEX
8
Layer 1
10
-27.448999
20
124.202000
70
0
0
VERTEX
8
Layer 1
10
-27.577999
20
124.265999
70
0
0
VERTEX
8
Layer 1
10
-27.648001
20
124.289677
70
0
0
VERTEX
8
Layer 1
10
-27.714001
20
124.312000
70
0
0
VERTEX
8
Layer 1
10
-27.855000
20
124.340000
70
0
0
VERTEX
8
Layer 1
10
-27.999001
20
124.349998
70
0
0
VERTEX
8
Layer 1
10
-28.143000
20
124.340000
70
0
0
VERTEX
8
Layer 1
10
-28.284000
20
124.312000
70
0
0
VERTEX
8
Layer 1
10
-28.420000
20
124.265999
70
0
0
VERTEX
8
Layer 1
10
-28.549000
20
124.202000
70
0
0
VERTEX
8
Layer 1
10
-28.669001
20
124.122002
70
0
0
VERTEX
8
Layer 1
10
-28.672001
20
124.119389
70
0
0
VERTEX
8
Layer 1
10
-28.777000
20
124.028000
70
0
0
VERTEX
8
Layer 1
10
-28.872000
20
123.918999
70
0
0
VERTEX
8
Layer 1
10
-28.952000
20
123.799999
70
0
0
VERTEX
8
Layer 1
10
-29.014999
20
123.671001
70
0
0
VERTEX
8
Layer 1
10
-29.062000
20
123.534000
70
0
0
VERTEX
8
Layer 1
10
-29.090000
20
123.393002
70
0
0
VERTEX
8
Layer 1
10
-29.099001
20
123.250000
70
0
0
VERTEX
8
Layer 1
10
-29.090000
20
123.105999
70
0
0
VERTEX
8
Layer 1
10
-29.062000
20
122.965000
70
0
0
VERTEX
8
Layer 1
10
-29.014999
20
122.828999
70
0
0
VERTEX
8
Layer 1
10
-28.952000
20
122.700001
70
0
0
VERTEX
8
Layer 1
10
-28.872000
20
122.580002
70
0
0
VERTEX
8
Layer 1
10
-28.777000
20
122.472000
70
0
0
SEQEND
8
Layer 1
0
POLYLINE
8
Layer 1
62
10
70
0
10
0.000000
20
0.000000
66
1
0
VERTEX
8
Layer 1
10
-84.106003
20
149.266998
70
0
0
VERTEX
8
Layer 1
10
-83.876999
20
149.251999
70
0
0
VERTEX
8
Layer 1
10
-83.649002
20
149.266998
70
0
0
VERTEX
8
Layer 1
10
-83.424004
20
149.311996
70
0
0
VERTEX
8
Layer 1
10
-83.208000
20
149.385002
70
0
0
VERTEX
8
Layer 1
10
-83.001999
20
149.487000
70
0
0
VERTEX
8
Layer 1
10
-82.811996
20
149.613998
70
0
0
VERTEX
8
Layer 1
10
-82.639999
20
149.764999
70
0
0
VERTEX
8
Layer 1
10
-82.588203
20
149.823997
70
0
0
VERTEX
8
Layer 1
10
-82.488998
20
149.936996
70
0
0
VERTEX
8
Layer 1
10
-82.362000
20
150.126999
70
0
0
VERTEX
8
Layer 1
10
-82.261002
20
150.333000
70
0
0
VERTEX
8
Layer 1
10
-82.186996
20
150.549004
70
0
0
VERTEX
8
Layer 1
10
-82.141998
20
150.774002
70
0
0
VERTEX
8
Layer 1
10
-82.126999
20
151.001999
70
0
0
VERTEX
8
Layer 1
10
-82.141998
20
151.231003
70
0
0
VERTEX
8
Layer 1
10
-82.186996
20
151.455002
70
0
0
VERTEX
8
Layer 1
10
-82.261002
20
151.671997
70
0
0
VERTEX
8
Layer 1
10
-82.359535
20
151.872002
70
0
0
VERTEX
8
Layer 1
10
-82.362000
20
151.876999
70
0
0
VERTEX
8
Layer 1
10
-82.488998
20
152.068001
70
0
0
VERTEX
8
Layer 1
10
-82.639999
20
152.239998
70
0
0
VERTEX
8
Layer 1
10
-82.811996
20
152.390999
70
0
0
VERTEX
8
Layer 1
10
-83.001999
20
152.517998
70
0
0
VERTEX
8
Layer 1
10
-83.208000
20
152.619003
70
0
0
VERTEX
8
Layer 1
10
-83.424004
20
152.693001
70
0
0
VERTEX
8
Layer 1
10
-83.649002
20
152.737999
70
0
0
VERTEX
8
Layer 1
10
-83.876999
20
152.752998
70
0
0
VERTEX
8
Layer 1
10
-83.968002
20
152.747040
70
0
0
VERTEX
8
Layer 1
10
-84.106003
20
152.737999
70
0
0
VERTEX
8
Layer 1
10
-84.330002
20
152.693001
70
0
0
VERTEX
8
Layer 1
10
-84.546997
20
152.619003
70
0
0
VERTEX
8
Layer 1
10
-84.751999
20
152.517998
70
0
0
VERTEX
8
Layer 1
10
-84.943001
20
152.390999
70
0
0
VERTEX
8
Layer 1
10
-85.114998
20
152.239998
70
0
0
VERTEX
8
Layer 1
10
-85.265999
20
152.068001
70
0
0
VERTEX
8
Layer 1
10
-85.392998
20
151.876999
70
0
0
VERTEX
8
Layer 1
10
-85.395462
20
151.872002
70
0
0
VERTEX
8
Layer 1
10
-85.494003
20
151.671997
70
0
0
VERTEX
8
Layer 1
10
-85.568001
20
151.455002
70
0
0
VERTEX
8
Layer 1
10
-85.612999
20
151.231003
70
0
0
VERTEX
8
Layer 1
10
-85.627998
20
151.001999
70
0
0
VERTEX
8
Layer 1
10
-85.612999
20
150.774002
70
0
0
VERTEX
8
Layer 1
10
-85.568001
20
150.549004
70
0
0
VERTEX
8
Layer 1
10
-85.494003
20
150.333000
70
0
0
VERTEX
8
Layer 1
10
-85.392998
20
150.126999
70
0
0
VERTEX
8
Layer 1
10
-85.265999
20
149.936996
70
0
0
VERTEX
8
Layer 1
10
-85.166794
20
149.823997
70
0
0
VERTEX
8
Layer 1
10
-85.114998
20
149.764999
70
0
0
VERTEX
8
Layer 1
10
-84.943001
20
149.613998
70
0
0
VERTEX
8
Layer 1
10
-84.751999
20
149.487000
70
0
0
VERTEX
8
Layer 1
10
-84.546997
20
149.385002
70
0
0
VERTEX
8
Layer 1
10
-84.330002
20
149.311996
70
0
0
VERTEX
8
Layer 1
10
-84.106003
20
149.266998
70
0
0
SEQEND
8
Layer 1
0
POLYLINE
8
Layer 1
62
10
70
0
10
0.000000
20
0.000000
66
1
0
VERTEX
8
Layer 1
10
-6.351000
20
149.266998
70
0
0
VERTEX
8
Layer 1
10
-6.123000
20
149.251999
70
0
0
VERTEX
8
Layer 1
10
-5.894000
20
149.266998
70
0
0
VERTEX
8
Layer 1
10
-5.670000
20
149.311996
70
0
0
VERTEX
8
Layer 1
10
-5.453000
20
149.385002
70
0
0
VERTEX
8
Layer 1
10
-5.248000
20
149.487000
70
0
0
VERTEX
8
Layer 1
10
-5.057000
20
149.613998
70
0
0
VERTEX
8
Layer 1
10
-4.885000
20
149.764999
70
0
0
VERTEX
8
Layer 1
10
-4.833203
20
149.823997
70
0
0
VERTEX
8
Layer 1
10
-4.734000
20
149.936996
70
0
0
VERTEX
8
Layer 1
10
-4.607000
20
150.126999
70
0
0
VERTEX
8
Layer 1
10
-4.506000
20
150.333000
70
0
0
VERTEX
8
Layer 1
10
-4.432000
20
150.549004
70
0
0
VERTEX
8
Layer 1
10
-4.387000
20
150.774002
70
0
0
VERTEX
8
Layer 1
10
-4.373000
20
151.001999
70
0
0
VERTEX
8
Layer 1
10
-4.387000
20
151.231003
70
0
0
VERTEX
8
Layer 1
10
-4.432000
20
151.455002
70
0
0
VERTEX
8
Layer 1
10
-4.506000
20
151.671997
70
0
0
VERTEX
8
Layer 1
10
-4.604537
20
151.872002
70
0
0
VERTEX
8
Layer 1
10
-4.607000
20
151.876999
70
0
0
VERTEX
8
Layer 1
10
-4.734000
20
152.068001
70
0
0
VERTEX
8
Layer 1
10
-4.885000
20
152.239998
70
0
0
VERTEX
8
Layer 1
10
-5.057000
20
152.390999
70
0
0
VERTEX
8
Layer 1
10
-5.248000
20
152.517998
70
0
0
VERTEX
8
Layer 1
10
-5.453000
20
152.619003
70
0
0
VERTEX
8
Layer 1
10
-5.670000
20
152.693001
70
0
0
VERTEX
8
Layer 1
10
-5.894000
20
152.737999
70
0
0
VERTEX
8
Layer 1
10
-6.123000
20
152.752998
70
0
0
VERTEX
8
Layer 1
10
-6.144000
20
152.751617
70
0
0
VERTEX
8
Layer 1
10
-6.351000
20
152.737999
70
0
0
VERTEX
8
Layer 1
10
-6.576000
20
152.693001
70
0
0
VERTEX
8
Layer 1
10
-6.792000
20
152.619003
70
0
0
VERTEX
8
Layer 1
10
-6.998000
20
152.517998
70
0
0
VERTEX
8
Layer 1
10
-7.188000
20
152.390999
70
0
0
VERTEX
8
Layer 1
10
-7.360000
20
152.239998
70
0
0
VERTEX
8
Layer 1
10
-7.511000
20
152.068001
70
0
0
VERTEX
8
Layer 1
10
-7.638000
20
151.876999
70
0
0
VERTEX
8
Layer 1
10
-7.640463
20
151.872002
70
0
0
VERTEX
8
Layer 1
10
-7.739000
20
151.671997
70
0
0
VERTEX
8
Layer 1
10
-7.813000
20
151.455002
70
0
0
VERTEX
8
Layer 1
10
-7.858000
20
151.231003
70
0
0
VERTEX
8
Layer 1
10
-7.873000
20
151.001999
70
0
0
VERTEX
8
Layer 1
10
-7.858000
20
150.774002
70
0
0
VERTEX
8
Layer 1
10
-7.813000
20
150.549004
70
0
0
VERTEX
8
Layer 1
10
-7.739000
20
150.333000
70
0
0
VERTEX
8
Layer 1
10
-7.638000
20
150.126999
70
0
0
VERTEX
8
Layer 1
10
-7.511000
20
149.936996
70
0
0
VERTEX
8
Layer 1
10
-7.411797
20
149.823997
70
0
0
VERTEX
8
Layer 1
10
-7.360000
20
149.764999
70
0
0
VERTEX
8
Layer 1
10
-7.188000
20
149.613998
70
0
0
VERTEX
8
Layer 1
10
-6.998000
20
149.487000
70
0
0
VERTEX
8
Layer 1
10
-6.792000
20
149.385002
70
0
0
VERTEX
8
Layer 1
10
-6.576000
20
149.311996
70
0
0
VERTEX
8
Layer 1
10
-6.351000
20
149.266998
70
0
0
SEQEND
8
Layer 1
0
POLYLINE
8
Layer 1
62
10
70
0
10
0.000000
20
0.000000
66
1
0
VERTEX
8
Layer 1
10
-6.144000
20
91.249289
70
0
0
VERTEX
8
Layer 1
10
-6.123000
20
91.247999
70
0
0
VERTEX
8
Layer 1
10
-5.894000
20
91.261999
70
0
0
VERTEX
8
Layer 1
10
-5.670000
20
91.306999
70
0
0
VERTEX
8
Layer 1
10
-5.453000
20
91.381001
70
0
0
VERTEX
8
Layer 1
10
-5.248000
20
91.482000
70
0
0
VERTEX
8
Layer 1
10
-5.057000
20
91.608999
70
0
0
VERTEX
8
Layer 1
10
-4.885000
20
91.760000
70
0
0
VERTEX
8
Layer 1
10
-4.734000
20
91.931999
70
0
0
VERTEX
8
Layer 1
10
-4.607000
20
92.122999
70
0
0
VERTEX
8
Layer 1
10
-4.506000
20
92.327999
70
0
0
VERTEX
8
Layer 1
10
-4.454166
20
92.480000
70
0
0
VERTEX
8
Layer 1
10
-4.432000
20
92.545000
70
0
0
VERTEX
8
Layer 1
10
-4.387000
20
92.768999
70
0
0
VERTEX
8
Layer 1
10
-4.373000
20
92.997999
70
0
0
VERTEX
8
Layer 1
10
-4.387000
20
93.226000
70
0
0
VERTEX
8
Layer 1
10
-4.432000
20
93.451000
70
0
0
VERTEX
8
Layer 1
10
-4.506000
20
93.667000
70
0
0
VERTEX
8
Layer 1
10
-4.607000
20
93.872999
70
0
0
VERTEX
8
Layer 1
10
-4.734000
20
94.063000
70
0
0
VERTEX
8
Layer 1
10
-4.885000
20
94.235001
70
0
0
VERTEX
8
Layer 1
10
-5.057000
20
94.386000
70
0
0
VERTEX
8
Layer 1
10
-5.248000
20
94.513000
70
0
0
VERTEX
8
Layer 1
10
-5.278147
20
94.528000
70
0
0
VERTEX
8
Layer 1
10
-5.453000
20
94.615000
70
0
0
VERTEX
8
Layer 1
10
-5.670000
20
94.688000
70
0
0
VERTEX
8
Layer 1
10
-5.894000
20
94.733000
70
0
0
VERTEX
8
Layer 1
10
-6.123000
20
94.747999
70
0
0
VERTEX
8
Layer 1
10
-6.144000
20
94.746618
70
0
0
VERTEX
8
Layer 1
10
-6.351000
20
94.733000
70
0
0
VERTEX
8
Layer 1
10
-6.576000
20
94.688000
70
0
0
VERTEX
8
Layer 1
10
-6.792000
20
94.615000
70
0
0
VERTEX
8
Layer 1
10
-6.967706
20
94.528000
70
0
0
VERTEX
8
Layer 1
10
-6.998000
20
94.513000
70
0
0
VERTEX
8
Layer 1
10
-7.188000
20
94.386000
70
0
0
VERTEX
8
Layer 1
10
-7.360000
20
94.235001
70
0
0
VERTEX
8
Layer 1
10
-7.511000
20
94.063000
70
0
0
VERTEX
8
Layer 1
10
-7.638000
20
93.872999
70
0
0
VERTEX
8
Layer 1
10
-7.739000
20
93.667000
70
0
0
VERTEX
8
Layer 1
10
-7.813000
20
93.451000
70
0
0
VERTEX
8
Layer 1
10
-7.858000
20
93.226000
70
0
0
VERTEX
8
Layer 1
10
-7.873000
20
92.997999
70
0
0
VERTEX
8
Layer 1
10
-7.858000
20
92.768999
70
0
0
VERTEX
8
Layer 1
10
-7.813000
20
92.545000
70
0
0
VERTEX
8
Layer 1
10
-7.790834
20
92.480000
70
0
0
VERTEX
8
Layer 1
10
-7.739000
20
92.327999
70
0
0
VERTEX
8
Layer 1
10
-7.638000
20
92.122999
70
0
0
VERTEX
8
Layer 1
10
-7.511000
20
91.931999
70
0
0
VERTEX
8
Layer 1
10
-7.360000
20
91.760000
70
0
0
VERTEX
8
Layer 1
10
-7.188000
20
91.608999
70
0
0
VERTEX
8
Layer 1
10
-6.998000
20
91.482000
70
0
0
VERTEX
8
Layer 1
10
-6.792000
20
91.381001
70
0
0
VERTEX
8
Layer 1
10
-6.576000
20
91.306999
70
0
0
VERTEX
8
Layer 1
10
-6.351000
20
91.261999
70
0
0
VERTEX
8
Layer 1
10
-6.144000
20
91.249289
70
0
0
VERTEX
8
Layer 1
10
-6.144000
20
91.249289
70
0
0
SEQEND
8
Layer 1
 0 
ENDSEC
 0 
EOF