<?xml version="1.0" standalone="no"?>
<!DOCTYPE svg PUBLIC "-//W3C//DTD SVG 1.1//EN"
  "http://www.w3.org/Graphics/SVG/1.1/DTD/svg11.dtd">
<svg width="92mm" height="71.99999999999999mm" viewBox="-91 -85.99999999999999 92 71.99999999999999" xmlns="http://www.w3.org/2000/svg" version="1.1">
	<title>svgOutput</title>
	<desc>made with tinkercad</desc>
<path d="M -89.9489974975586 -20.216999053955075 L -90 -20.999999999999996 L -89.99980163574219 -21.00300025939941 L -90 -21.00300025939941 L -90 -72.99999999999999 L -90 -73.72799682617186 L -90 -78.9980010986328 L -89.99987030029297 -78.9980010986328 L -90 -78.99999999999999 L -89.9489974975586 -79.78299713134764 L -89.7959976196289 -80.55300140380858 L -89.54299926757812 -81.29599761962889 L -89.23543548583984 -81.9199981689453 L -89.19599914550781 -81.99999999999999 L -88.76000213623047 -82.65299987792967 L -88.24299621582031 -83.2429962158203 L -87.65299987792969 -83.76000213623045 L -87 -84.1959991455078 L -86.2959976196289 -84.54299926757811 L -85.5530014038086 -84.79599761962889 L -84.78299713134766 -84.94899749755858 L -84 -84.99999999999999 L -83.99800109863281 -84.99987030029295 L -83.99800109863281 -84.99999999999999 L -83.47366333007812 -84.99999999999999 L -83.04609680175781 -84.99999999999999 L -81.91999816894531 -84.99999999999999 L -81.7620849609375 -84.99999999999999 L -81.2966079711914 -84.99999999999999 L -80.80706024169922 -84.99999999999999 L -80.2826919555664 -84.99999999999999 L -78 -84.99999999999999 L -12 -84.99999999999999 L -8.192000389099121 -84.99999999999999 L -6.002999782562256 -84.99999999999999 L -6.002999782562256 -84.99980163574217 L -6 -84.99999999999999 L -5.2170000076293945 -84.94899749755858 L -4.447000026702881 -84.79599761962889 L -3.7039999961853027 -84.54299926757811 L -3 -84.1959991455078 L -2.3469998836517334 -83.76000213623045 L -1.7569999694824219 -83.2429962158203 L -1.2400000095367432 -82.65299987792967 L -0.8040000200271606 -81.99999999999999 L -0.7645682096481323 -81.9199981689453 L -0.4569999873638153 -81.29599761962889 L -0.20399999618530273 -80.55300140380858 L -0.050999999046325684 -79.78299713134764 L 0 -78.99999999999999 L -0.00013026819215156138 -78.9980010986328 L 0 -78.9980010986328 L 0 -78.47366333007811 L 0 -78.0460968017578 L 0 -77.63117218017577 L 0 -77.2041549682617 L -1.2628102502489774e-14 -76.76208496093749 L 0 -76.29660797119139 L 0 -75.8070602416992 L 0 -75.28269195556639 L 0 -73.72799682617186 L 0 -73.39080810546874 L 0 -72.99999999999999 L 0 -26.999999999999993 L 0 -24.57600021362304 L 0 -21.00300025939941 L -0.0001954023027792573 -21.00300025939941 L 0 -20.999999999999996 L -0.050999999046325684 -20.216999053955075 L -0.20399999618530273 -19.447000503540036 L -0.27176177501678467 -19.247999191284176 L -0.4569999873638153 -18.704000473022457 L -0.8040000200271606 -17.999999999999996 L -1.2400000095367432 -17.34700012207031 L -1.7569999694824219 -16.75699996948242 L -2.1826672554016113 -16.38400077819824 L -2.3469998836517334 -16.23999977111816 L -3 -15.803999900817868 L -3.7039999961853027 -15.456999778747555 L -4.447000026702881 -15.204000473022457 L -5.2170000076293945 -15.050999641418453 L -6 -14.999999999999996 L -6.002999782562256 -15.00019550323486 L -6.002999782562256 -14.999999999999996 L -6.526333332061768 -14.999999999999996 L -6.953901290893555 -14.999999999999996 L -7.36883020401001 -14.999999999999996 L -7.795844078063965 -14.999999999999996 L -8.237913131713867 -14.999999999999996 L -12 -14.999999999999996 L -83.99800109863281 -14.999999999999996 L -83.99800109863281 -15.000130653381344 L -84 -14.999999999999996 L -84.78299713134766 -15.050999641418453 L -85.5530014038086 -15.204000473022457 L -86.2959976196289 -15.456999778747555 L -87 -15.803999900817868 L -87.65299987792969 -16.23999977111816 L -87.81732940673828 -16.38400077819824 L -88.24299621582031 -16.75699996948242 L -88.76000213623047 -17.34700012207031 L -89.19599914550781 -17.999999999999996 L -89.54299926757812 -18.704000473022457 L -89.7959976196289 -19.447000503540036 L -89.9489974975586 -20.216999053955075 M -84.10600280761719 -19.26199913024902 L -83.99800109863281 -19.255397796630856 L -83.96800231933594 -19.25356292724609 L -83.87699890136719 -19.247999191284176 L -83.64900207519531 -19.26199913024902 L -83.42400360107422 -19.306999206542965 L -83.20800018310547 -19.381000518798825 L -83.00199890136719 -19.482000350952145 L -82.81199645996094 -19.608999252319332 L -82.63999938964844 -19.760000228881832 L -82.48899841308594 -19.931999206542965 L -82.36199951171875 -20.122999191284176 L -82.26100158691406 -20.32799911499023 L -82.20916748046875 -20.479999542236325 L -82.18699645996094 -20.54500007629394 L -82.14199829101562 -20.76899909973144 L -82.12699890136719 -20.997999191284176 L -82.14199829101562 -21.225999832153317 L -82.18699645996094 -21.451000213623043 L -82.26100158691406 -21.666999816894528 L -82.36199951171875 -21.872999191284176 L -82.48899841308594 -22.062999725341793 L -82.63999938964844 -22.23500061035156 L -82.81199645996094 -22.385999679565426 L -83.00199890136719 -22.513000488281246 L -83.03229522705078 -22.527999877929684 L -83.20800018310547 -22.61499977111816 L -83.42400360107422 -22.687999725341793 L -83.64900207519531 -22.73299980163574 L -83.87699890136719 -22.747999191284176 L -83.96800231933594 -22.742038726806637 L -83.99800109863281 -22.74007415771484 L -84.10600280761719 -22.73299980163574 L -84.33000183105469 -22.687999725341793 L -84.5469970703125 -22.61499977111816 L -84.72185516357422 -22.527999877929684 L -84.75199890136719 -22.513000488281246 L -84.94300079345703 -22.385999679565426 L -85.11499786376953 -22.23500061035156 L -85.26599884033203 -22.062999725341793 L -85.39299774169922 -21.872999191284176 L -85.49400329589844 -21.666999816894528 L -85.56800079345703 -21.451000213623043 L -85.61299896240234 -21.225999832153317 L -85.62767028808594 -21.00300025939941 L -85.62799835205078 -20.997999191284176 L -85.61299896240234 -20.76899909973144 L -85.56800079345703 -20.54500007629394 L -85.54583740234375 -20.479999542236325 L -85.49400329589844 -20.32799911499023 L -85.39299774169922 -20.122999191284176 L -85.26599884033203 -19.931999206542965 L -85.11499786376953 -19.760000228881832 L -84.94300079345703 -19.608999252319332 L -84.75199890136719 -19.482000350952145 L -84.5469970703125 -19.381000518798825 L -84.33000183105469 -19.306999206542965 L -84.10600280761719 -19.26199913024902 M -62.55099868774414 -50.29700088500975 L -62.4640007019043 -50.253837585449205 L -62.422000885009766 -50.23300170898436 L -62.2859992980957 -50.18700027465819 L -62.23060607910156 -50.175998687744126 L -62.14500045776367 -50.1590003967285 L -62.000999450683594 -50.15000152587889 L -61.856998443603516 -50.1590003967285 L -61.771392822265625 -50.175998687744126 L -61.715999603271484 -50.18700027465819 L -61.58000183105469 -50.23300170898436 L -61.45100021362305 -50.29700088500975 L -61.439998626708984 -50.30433273315428 L -61.33100128173828 -50.37699890136717 L -61.222999572753906 -50.4720001220703 L -61.12799835205078 -50.58000183105467 L -61.04800033569336 -50.70000076293944 L -60.98500061035156 -50.828998565673814 L -60.9379997253418 -50.965000152587876 L -60.90999984741211 -51.10599899291991 L -60.90412521362305 -51.20000076293944 L -60.9010009765625 -51.249999999999986 L -60.90999984741211 -51.39300155639647 L -60.9379997253418 -51.5340003967285 L -60.98500061035156 -51.67100143432616 L -61.04800033569336 -51.79999923706053 L -61.12799835205078 -51.918998718261705 L -61.222999572753906 -52.02799987792967 L -61.33100128173828 -52.122001647949205 L -61.439998626708984 -52.194667816162095 L -61.45100021362305 -52.201999664306626 L -61.58000183105469 -52.26599884033202 L -61.715999603271484 -52.31200027465819 L -61.856998443603516 -52.340000152587876 L -62.000999450683594 -52.34999847412108 L -62.14500045776367 -52.340000152587876 L -62.2859992980957 -52.31200027465819 L -62.422000885009766 -52.26599884033202 L -62.4640007019043 -52.24516296386717 L -62.55099868774414 -52.201999664306626 L -62.67100143432617 -52.122001647949205 L -62.77899932861328 -52.02799987792967 L -62.874000549316406 -51.918998718261705 L -62.95399856567383 -51.79999923706053 L -63.016998291015625 -51.67100143432616 L -63.06399917602539 -51.5340003967285 L -63.09199905395508 -51.39300155639647 L -63.10100173950195 -51.249999999999986 L -63.09787368774414 -51.20000076293944 L -63.09199905395508 -51.10599899291991 L -63.06399917602539 -50.965000152587876 L -63.016998291015625 -50.828998565673814 L -62.95399856567383 -50.70000076293944 L -62.874000549316406 -50.58000183105467 L -62.77899932861328 -50.4720001220703 L -62.67100143432617 -50.37699890136717 L -62.55099868774414 -50.29700088500975 M -55.422000885009766 -50.23300170898436 L -55.29600143432617 -50.1903839111328 L -55.2859992980957 -50.18700027465819 L -55.23060607910156 -50.175998687744126 L -55.14500045776367 -50.1590003967285 L -55.000999450683594 -50.15000152587889 L -54.856998443603516 -50.1590003967285 L -54.771392822265625 -50.175998687744126 L -54.715999603271484 -50.18700027465819 L -54.58000183105469 -50.23300170898436 L -54.45100021362305 -50.29700088500975 L -54.33100128173828 -50.37699890136717 L -54.222999572753906 -50.4720001220703 L -54.12799835205078 -50.58000183105467 L -54.04800033569336 -50.70000076293944 L -53.98500061035156 -50.828998565673814 L -53.9379997253418 -50.965000152587876 L -53.90999984741211 -51.10599899291991 L -53.90412521362305 -51.20000076293944 L -53.9010009765625 -51.249999999999986 L -53.90999984741211 -51.39300155639647 L -53.9379997253418 -51.5340003967285 L -53.98500061035156 -51.67100143432616 L -54.04800033569336 -51.79999923706053 L -54.12799835205078 -51.918998718261705 L -54.222999572753906 -52.02799987792967 L -54.27199935913086 -52.07064819335936 L -54.33100128173828 -52.122001647949205 L -54.45100021362305 -52.201999664306626 L -54.58000183105469 -52.26599884033202 L -54.715999603271484 -52.31200027465819 L -54.856998443603516 -52.340000152587876 L -55.000999450683594 -52.34999847412108 L -55.14500045776367 -52.340000152587876 L -55.2859992980957 -52.31200027465819 L -55.29600143432617 -52.30861663818358 L -55.422000885009766 -52.26599884033202 L -55.55099868774414 -52.201999664306626 L -55.67100143432617 -52.122001647949205 L -55.77899932861328 -52.02799987792967 L -55.874000549316406 -51.918998718261705 L -55.95399856567383 -51.79999923706053 L -56.016998291015625 -51.67100143432616 L -56.06399917602539 -51.5340003967285 L -56.09199905395508 -51.39300155639647 L -56.10100173950195 -51.249999999999986 L -56.09787368774414 -51.20000076293944 L -56.09199905395508 -51.10599899291991 L -56.06399917602539 -50.965000152587876 L -56.016998291015625 -50.828998565673814 L -55.95399856567383 -50.70000076293944 L -55.874000549316406 -50.58000183105467 L -55.77899932861328 -50.4720001220703 L -55.67100143432617 -50.37699890136717 L -55.55099868774414 -50.29700088500975 L -55.422000885009766 -50.23300170898436 M -49.473121643066406 -49.15200042724608 L -49.39099884033203 -49.20700073242186 L -49.292999267578125 -49.29299926757811 L -49.207000732421875 -49.39099884033202 L -49.152000427246094 -49.47312164306639 L -49.13399887084961 -49.499999999999986 L -49.07600021362305 -49.61700057983397 L -49.034000396728516 -49.741001129150376 L -49 -49.999999999999986 L -49.005245208740234 -50.07633209228514 L -49.019432067871094 -50.18441772460936 L -49.034000396728516 -50.258998870849595 L -49.07600021362305 -50.382999420166 L -49.13399887084961 -50.499999999999986 L -49.152000427246094 -50.52687835693358 L -49.207000732421875 -50.609001159667955 L -49.292999267578125 -50.70700073242186 L -49.39099884033203 -50.79299926757811 L -49.5 -50.866001129150376 L -49.617000579833984 -50.92399978637694 L -49.74100112915039 -50.96599960327147 L -50 -50.999999999999986 L -50.17599868774414 -50.976894378662095 L -50.25899887084961 -50.96599960327147 L -50.382999420166016 -50.92399978637694 L -50.5 -50.866001129150376 L -50.60900115966797 -50.79299926757811 L -50.707000732421875 -50.70700073242186 L -50.792999267578125 -50.609001159667955 L -50.86600112915039 -50.499999999999986 L -50.92399978637695 -50.382999420166 L -50.965999603271484 -50.258998870849595 L -50.97643280029297 -50.20558166503905 L -50.980316162109375 -50.175998687744126 L -50.99624252319336 -50.05466842651366 L -51 -49.999999999999986 L -50.994754791259766 -49.92366790771483 L -50.980567932128906 -49.81558227539061 L -50.965999603271484 -49.741001129150376 L -50.92399978637695 -49.61700057983397 L -50.86600112915039 -49.499999999999986 L -50.792999267578125 -49.39099884033202 L -50.707000732421875 -49.29299926757811 L -50.60900115966797 -49.20700073242186 L -50.526878356933594 -49.15200042724608 L -50.5 -49.133998870849595 L -50.382999420166016 -49.07600021362303 L -50.25899887084961 -49.0340003967285 L -50 -48.999999999999986 L -49.923667907714844 -49.00524520874022 L -49.815582275390625 -49.01943206787108 L -49.74100112915039 -49.0340003967285 L -49.617000579833984 -49.07600021362303 L -49.5 -49.133998870849595 L -49.473121643066406 -49.15200042724608 M -45.055999755859375 -49.003849029541 L -45 -48.999999999999986 L -44.923667907714844 -49.00524520874022 L -44.815582275390625 -49.01943206787108 L -44.74100112915039 -49.0340003967285 L -44.617000579833984 -49.07600021362303 L -44.5 -49.133998870849595 L -44.473121643066406 -49.15200042724608 L -44.39099884033203 -49.20700073242186 L -44.292999267578125 -49.29299926757811 L -44.207000732421875 -49.39099884033202 L -44.13399887084961 -49.499999999999986 L -44.07600021362305 -49.61700057983397 L -44.034000396728516 -49.741001129150376 L -44.019432067871094 -49.81558227539061 L -44.005245208740234 -49.92366790771483 L -44 -49.999999999999986 L -44.02310562133789 -50.175998687744126 L -44.034000396728516 -50.258998870849595 L -44.07600021362305 -50.382999420166 L -44.13399887084961 -50.499999999999986 L -44.207000732421875 -50.609001159667955 L -44.292999267578125 -50.70700073242186 L -44.39099884033203 -50.79299926757811 L -44.5 -50.866001129150376 L -44.617000579833984 -50.92399978637694 L -44.74100112915039 -50.96599960327147 L -45 -50.999999999999986 L -45.05466842651367 -50.996242523193345 L -45.055999755859375 -50.99607086181639 L -45.20558166503906 -50.976432800292955 L -45.25899887084961 -50.96599960327147 L -45.382999420166016 -50.92399978637694 L -45.5 -50.866001129150376 L -45.60900115966797 -50.79299926757811 L -45.707000732421875 -50.70700073242186 L -45.792999267578125 -50.609001159667955 L -45.86600112915039 -50.499999999999986 L -45.92399978637695 -50.382999420166 L -45.965999603271484 -50.258998870849595 L -45.97689437866211 -50.175998687744126 L -46 -49.999999999999986 L -45.965999603271484 -49.741001129150376 L -45.92399978637695 -49.61700057983397 L -45.86600112915039 -49.499999999999986 L -45.792999267578125 -49.39099884033202 L -45.707000732421875 -49.29299926757811 L -45.60900115966797 -49.20700073242186 L -45.526878356933594 -49.15200042724608 L -45.5 -49.133998870849595 L -45.382999420166016 -49.07600021362303 L -45.25899887084961 -49.0340003967285 L -45.184417724609375 -49.01943206787108 L -45.076332092285156 -49.00524520874022 L -45.055999755859375 -49.003849029541 M -40.25899887084961 -49.0340003967285 L -40 -48.999999999999986 L -39.74100112915039 -49.0340003967285 L -39.617000579833984 -49.07600021362303 L -39.5 -49.133998870849595 L -39.473121643066406 -49.15200042724608 L -39.39099884033203 -49.20700073242186 L -39.292999267578125 -49.29299926757811 L -39.207000732421875 -49.39099884033202 L -39.13399887084961 -49.499999999999986 L -39.07600021362305 -49.61700057983397 L -39.034000396728516 -49.741001129150376 L -39.019432067871094 -49.81558227539061 L -39.005245208740234 -49.92366790771483 L -39 -49.999999999999986 L -39.02310562133789 -50.175998687744126 L -39.034000396728516 -50.258998870849595 L -39.07600021362305 -50.382999420166 L -39.13399887084961 -50.499999999999986 L -39.207000732421875 -50.609001159667955 L -39.292999267578125 -50.70700073242186 L -39.39099884033203 -50.79299926757811 L -39.5 -50.866001129150376 L -39.617000579833984 -50.92399978637694 L -39.74100112915039 -50.96599960327147 L -39.93600082397461 -50.99160003662108 L -40 -50.999999999999986 L -40.25899887084961 -50.96599960327147 L -40.382999420166016 -50.92399978637694 L -40.5 -50.866001129150376 L -40.60900115966797 -50.79299926757811 L -40.707000732421875 -50.70700073242186 L -40.792999267578125 -50.609001159667955 L -40.86600112915039 -50.499999999999986 L -40.92399978637695 -50.382999420166 L -40.959999084472656 -50.27671432495116 L -40.965999603271484 -50.258998870849595 L -41 -49.999999999999986 L -40.965999603271484 -49.741001129150376 L -40.959999084472656 -49.723285675048814 L -40.92399978637695 -49.61700057983397 L -40.86600112915039 -49.499999999999986 L -40.792999267578125 -49.39099884033202 L -40.707000732421875 -49.29299926757811 L -40.60900115966797 -49.20700073242186 L -40.526878356933594 -49.15200042724608 L -40.5 -49.133998870849595 L -40.382999420166016 -49.07600021362303 L -40.25899887084961 -49.0340003967285 M -36.0620002746582 -50.965000152587876 L -36.01499938964844 -50.828998565673814 L -35.95199966430664 -50.70000076293944 L -35.87200164794922 -50.58000183105467 L -35.777000427246094 -50.4720001220703 L -35.66899871826172 -50.37699890136717 L -35.54899978637695 -50.29700088500975 L -35.41999816894531 -50.23300170898436 L -35.284000396728516 -50.18700027465819 L -35.143001556396484 -50.1590003967285 L -34.999000549316406 -50.15000152587889 L -34.85499954223633 -50.1590003967285 L -34.816001892089844 -50.16674423217772 L -34.7140007019043 -50.18700027465819 L -34.577999114990234 -50.23300170898436 L -34.44900131225586 -50.29700088500975 L -34.32899856567383 -50.37699890136717 L -34.22100067138672 -50.4720001220703 L -34.125999450683594 -50.58000183105467 L -34.04600143432617 -50.70000076293944 L -33.983001708984375 -50.828998565673814 L -33.93600082397461 -50.965000152587876 L -33.90800094604492 -51.10599899291991 L -33.90212631225586 -51.20000076293944 L -33.89899826049805 -51.249999999999986 L -33.90800094604492 -51.39300155639647 L -33.93600082397461 -51.5340003967285 L -33.983001708984375 -51.67100143432616 L -34.04600143432617 -51.79999923706053 L -34.125999450683594 -51.918998718261705 L -34.22100067138672 -52.02799987792967 L -34.32899856567383 -52.122001647949205 L -34.44900131225586 -52.201999664306626 L -34.577999114990234 -52.26599884033202 L -34.7140007019043 -52.31200027465819 L -34.816001892089844 -52.33225631713866 L -34.85499954223633 -52.340000152587876 L -34.999000549316406 -52.34999847412108 L -35.143001556396484 -52.340000152587876 L -35.284000396728516 -52.31200027465819 L -35.41999816894531 -52.26599884033202 L -35.54899978637695 -52.201999664306626 L -35.66899871826172 -52.122001647949205 L -35.777000427246094 -52.02799987792967 L -35.87200164794922 -51.918998718261705 L -35.95199966430664 -51.79999923706053 L -36.01499938964844 -51.67100143432616 L -36.0620002746582 -51.5340003967285 L -36.09000015258789 -51.39300155639647 L -36.0989990234375 -51.249999999999986 L -36.09587478637695 -51.20000076293944 L -36.09000015258789 -51.10599899291991 L -36.0620002746582 -50.965000152587876 M -28.777000427246094 -50.4720001220703 L -28.672000885009766 -50.379638671874986 L -28.66900062561035 -50.37699890136717 L -28.548999786376953 -50.29700088500975 L -28.420000076293945 -50.23300170898436 L -28.284000396728516 -50.18700027465819 L -28.228607177734375 -50.175998687744126 L -28.14299964904785 -50.1590003967285 L -27.999000549316406 -50.15000152587889 L -27.854999542236328 -50.1590003967285 L -27.769392013549805 -50.175998687744126 L -27.714000701904297 -50.18700027465819 L -27.648000717163086 -50.209323883056626 L -27.577999114990234 -50.23300170898436 L -27.448999404907227 -50.29700088500975 L -27.32900047302246 -50.37699890136717 L -27.22100067138672 -50.4720001220703 L -27.125999450683594 -50.58000183105467 L -27.04599952697754 -50.70000076293944 L -26.982999801635742 -50.828998565673814 L -26.93600082397461 -50.965000152587876 L -26.908000946044922 -51.10599899291991 L -26.902124404907227 -51.20000076293944 L -26.89900016784668 -51.249999999999986 L -26.908000946044922 -51.39300155639647 L -26.93600082397461 -51.5340003967285 L -26.982999801635742 -51.67100143432616 L -27.04599952697754 -51.79999923706053 L -27.125999450683594 -51.918998718261705 L -27.22100067138672 -52.02799987792967 L -27.32900047302246 -52.122001647949205 L -27.448999404907227 -52.201999664306626 L -27.577999114990234 -52.26599884033202 L -27.648000717163086 -52.28967666625975 L -27.714000701904297 -52.31200027465819 L -27.854999542236328 -52.340000152587876 L -27.999000549316406 -52.34999847412108 L -28.14299964904785 -52.340000152587876 L -28.284000396728516 -52.31200027465819 L -28.420000076293945 -52.26599884033202 L -28.548999786376953 -52.201999664306626 L -28.66900062561035 -52.122001647949205 L -28.672000885009766 -52.11938858032225 L -28.777000427246094 -52.02799987792967 L -28.871999740600586 -51.918998718261705 L -28.95199966430664 -51.79999923706053 L -29.014999389648438 -51.67100143432616 L -29.062000274658203 -51.5340003967285 L -29.09000015258789 -51.39300155639647 L -29.099000930786133 -51.249999999999986 L -29.09000015258789 -51.10599899291991 L -29.062000274658203 -50.965000152587876 L -29.014999389648438 -50.828998565673814 L -28.95199966430664 -50.70000076293944 L -28.871999740600586 -50.58000183105467 L -28.777000427246094 -50.4720001220703 M -84.10600280761719 -77.26699829101561 L -83.87699890136719 -77.25199890136717 L -83.64900207519531 -77.26699829101561 L -83.42400360107422 -77.31199645996092 L -83.20800018310547 -77.38500213623045 L -83.00199890136719 -77.48699951171874 L -82.81199645996094 -77.61399841308592 L -82.63999938964844 -77.76499938964842 L -82.58820343017578 -77.82399749755858 L -82.48899841308594 -77.93699645996092 L -82.36199951171875 -78.12699890136717 L -82.26100158691406 -78.33300018310545 L -82.18699645996094 -78.5490036010742 L -82.14199829101562 -78.7740020751953 L -82.12699890136719 -79.00199890136717 L -82.14199829101562 -79.23100280761717 L -82.18699645996094 -79.45500183105467 L -82.26100158691406 -79.67199707031249 L -82.35953521728516 -79.8720016479492 L -82.36199951171875 -79.87699890136717 L -82.48899841308594 -80.06800079345702 L -82.63999938964844 -80.23999786376952 L -82.81199645996094 -80.39099884033202 L -83.00199890136719 -80.5179977416992 L -83.20800018310547 -80.61900329589842 L -83.42400360107422 -80.69300079345702 L -83.64900207519531 -80.73799896240233 L -83.87699890136719 -80.75299835205077 L -83.96800231933594 -80.74703979492186 L -84.10600280761719 -80.73799896240233 L -84.33000183105469 -80.69300079345702 L -84.5469970703125 -80.61900329589842 L -84.75199890136719 -80.5179977416992 L -84.94300079345703 -80.39099884033202 L -85.11499786376953 -80.23999786376952 L -85.26599884033203 -80.06800079345702 L -85.39299774169922 -79.87699890136717 L -85.39546203613281 -79.8720016479492 L -85.49400329589844 -79.67199707031249 L -85.56800079345703 -79.45500183105467 L -85.61299896240234 -79.23100280761717 L -85.62799835205078 -79.00199890136717 L -85.61299896240234 -78.7740020751953 L -85.56800079345703 -78.5490036010742 L -85.49400329589844 -78.33300018310545 L -85.39299774169922 -78.12699890136717 L -85.26599884033203 -77.93699645996092 L -85.16679382324219 -77.82399749755858 L -85.11499786376953 -77.76499938964842 L -84.94300079345703 -77.61399841308592 L -84.75199890136719 -77.48699951171874 L -84.5469970703125 -77.38500213623045 L -84.33000183105469 -77.31199645996092 L -84.10600280761719 -77.26699829101561 M -6.35099983215332 -77.26699829101561 L -6.123000144958496 -77.25199890136717 L -5.894000053405762 -77.26699829101561 L -5.670000076293945 -77.31199645996092 L -5.453000068664551 -77.38500213623045 L -5.248000144958496 -77.48699951171874 L -5.057000160217285 -77.61399841308592 L -4.885000228881836 -77.76499938964842 L -4.833203315734863 -77.82399749755858 L -4.734000205993652 -77.93699645996092 L -4.60699987411499 -78.12699890136717 L -4.50600004196167 -78.33300018310545 L -4.432000160217285 -78.5490036010742 L -4.38700008392334 -78.7740020751953 L -4.373000144958496 -79.00199890136717 L -4.38700008392334 -79.23100280761717 L -4.432000160217285 -79.45500183105467 L -4.50600004196167 -79.67199707031249 L -4.604536533355713 -79.8720016479492 L -4.60699987411499 -79.87699890136717 L -4.734000205993652 -80.06800079345702 L -4.885000228881836 -80.23999786376952 L -5.057000160217285 -80.39099884033202 L -5.248000144958496 -80.5179977416992 L -5.453000068664551 -80.61900329589842 L -5.670000076293945 -80.69300079345702 L -5.894000053405762 -80.73799896240233 L -6.123000144958496 -80.75299835205077 L -6.144000053405762 -80.75161743164061 L -6.35099983215332 -80.73799896240233 L -6.576000213623047 -80.69300079345702 L -6.791999816894531 -80.61900329589842 L -6.998000144958496 -80.5179977416992 L -7.188000202178955 -80.39099884033202 L -7.360000133514404 -80.23999786376952 L -7.511000156402588 -80.06800079345702 L -7.638000011444092 -79.87699890136717 L -7.640463352203369 -79.8720016479492 L -7.738999843597412 -79.67199707031249 L -7.813000202178955 -79.45500183105467 L -7.857999801635742 -79.23100280761717 L -7.873000144958496 -79.00199890136717 L -7.857999801635742 -78.7740020751953 L -7.813000202178955 -78.5490036010742 L -7.738999843597412 -78.33300018310545 L -7.638000011444092 -78.12699890136717 L -7.511000156402588 -77.93699645996092 L -7.411796569824219 -77.82399749755858 L -7.360000133514404 -77.76499938964842 L -7.188000202178955 -77.61399841308592 L -6.998000144958496 -77.48699951171874 L -6.791999816894531 -77.38500213623045 L -6.576000213623047 -77.31199645996092 L -6.35099983215332 -77.26699829101561 M -6.144000053405762 -19.249288558959957 L -6.123000144958496 -19.247999191284176 L -5.894000053405762 -19.26199913024902 L -5.670000076293945 -19.306999206542965 L -5.453000068664551 -19.381000518798825 L -5.248000144958496 -19.482000350952145 L -5.057000160217285 -19.608999252319332 L -4.885000228881836 -19.760000228881832 L -4.734000205993652 -19.931999206542965 L -4.60699987411499 -20.122999191284176 L -4.50600004196167 -20.32799911499023 L -4.454165935516357 -20.479999542236325 L -4.432000160217285 -20.54500007629394 L -4.38700008392334 -20.76899909973144 L -4.373000144958496 -20.997999191284176 L -4.38700008392334 -21.225999832153317 L -4.432000160217285 -21.451000213623043 L -4.50600004196167 -21.666999816894528 L -4.60699987411499 -21.872999191284176 L -4.734000205993652 -22.062999725341793 L -4.885000228881836 -22.23500061035156 L -5.057000160217285 -22.385999679565426 L -5.248000144958496 -22.513000488281246 L -5.278147220611572 -22.527999877929684 L -5.453000068664551 -22.61499977111816 L -5.670000076293945 -22.687999725341793 L -5.894000053405762 -22.73299980163574 L -6.123000144958496 -22.747999191284176 L -6.144000053405762 -22.74661827087402 L -6.35099983215332 -22.73299980163574 L -6.576000213623047 -22.687999725341793 L -6.791999816894531 -22.61499977111816 L -6.967705726623535 -22.527999877929684 L -6.998000144958496 -22.513000488281246 L -7.188000202178955 -22.385999679565426 L -7.360000133514404 -22.23500061035156 L -7.511000156402588 -22.062999725341793 L -7.638000011444092 -21.872999191284176 L -7.738999843597412 -21.666999816894528 L -7.813000202178955 -21.451000213623043 L -7.857999801635742 -21.225999832153317 L -7.873000144958496 -20.997999191284176 L -7.857999801635742 -20.76899909973144 L -7.813000202178955 -20.54500007629394 L -7.790833950042725 -20.479999542236325 L -7.738999843597412 -20.32799911499023 L -7.638000011444092 -20.122999191284176 L -7.511000156402588 -19.931999206542965 L -7.360000133514404 -19.760000228881832 L -7.188000202178955 -19.608999252319332 L -6.998000144958496 -19.482000350952145 L -6.791999816894531 -19.381000518798825 L -6.576000213623047 -19.306999206542965 L -6.35099983215332 -19.26199913024902 L -6.144000053405762 -19.249288558959957 z" fill="none" stroke="rgb(255,0,0)" stroke-width="0.001mm" />
</svg>