<?xml version="1.0" standalone="no"?>
<!DOCTYPE svg PUBLIC "-//W3C//DTD SVG 1.1//EN"
  "http://www.w3.org/Graphics/SVG/1.1/DTD/svg11.dtd">
<svg width="92mm" height="71.99999999999999mm" viewBox="-91 -10.249999999999998 92 71.99999999999999" xmlns="http://www.w3.org/2000/svg" version="1.1">
	<title>svgOutput</title>
	<desc>made with tinkercad</desc>
<path d="M -89.9489974975586 55.53300094604491 L -90 54.749999999999986 L -89.99987030029297 54.7480010986328 L -90 54.7480010986328 L -90 2.7499999999999996 L -90 1.1102230246251565e-16 L -90 -3.247999906539916 L -89.99987030029297 -3.247999906539916 L -90 -3.249999999999999 L -89.9489974975586 -4.032999992370605 L -89.7959976196289 -4.802999973297118 L -89.54299926757812 -5.546000003814696 L -89.19599914550781 -6.249999999999998 L -88.76000213623047 -6.902999877929686 L -88.24299621582031 -7.493000030517576 L -87.65299987792969 -8.010000228881834 L -87.38041687011719 -8.19200038909912 L -87 -8.446000099182127 L -86.2959976196289 -8.79300022125244 L -85.5530014038086 -9.045999526977537 L -84.78299713134766 -9.199000358581541 L -84 -9.249999999999998 L -83.99800109863281 -9.24986934661865 L -83.99800109863281 -9.249999999999998 L -83.47366333007812 -9.249999999999998 L -83.04609680175781 -9.249999999999998 L -81.91999816894531 -9.249999999999998 L -81.7620849609375 -9.249999999999998 L -81.2966079711914 -9.249999999999998 L -80.80706024169922 -9.249999999999998 L -80.2826919555664 -9.249999999999998 L -79.71825408935547 -9.249999999999998 L -79.0876235961914 -9.249999999999998 L -78.39080810546875 -9.249999999999998 L -78 -9.249999999999998 L -77.12699890136719 -9.249999999999998 L -12.873000144958496 -9.249999999999998 L -12 -9.249999999999998 L -8.192000389099121 -9.249999999999998 L -6.002999782562256 -9.249999999999998 L -6.002999782562256 -9.249804496765135 L -6 -9.249999999999998 L -5.2170000076293945 -9.199000358581541 L -4.447000026702881 -9.045999526977537 L -3.7039999961853027 -8.79300022125244 L -3 -8.446000099182127 L -2.6195826530456543 -8.19200038909912 L -2.3469998836517334 -8.010000228881834 L -1.7569999694824219 -7.493000030517576 L -1.2400000095367432 -6.902999877929686 L -0.8040000200271606 -6.249999999999998 L -0.4569999873638153 -5.546000003814696 L -0.20399999618530273 -4.802999973297118 L -0.050999999046325684 -4.032999992370605 L 0 -3.249999999999999 L -0.00013026819215156138 -3.247999906539916 L 0 -3.247999906539916 L 0 -2.723666667938232 L 0 -2.296098709106445 L 0 -1.881170034408569 L 0 -1.4541559219360347 L 0 1.1102230246251565e-16 L 0 0.46730682253837585 L 0 1.0317456722259521 L 0 1.6623753309249873 L 0 2.359195470809936 L 0 2.7499999999999996 L 0 3.997999906539916 L 0 48.749999999999986 L 0 49.15200042724608 L 0 54.7480010986328 L -0.00013026819215156138 54.7480010986328 L 0 54.749999999999986 L -0.050999999046325684 55.53300094604491 L -0.20399999618530273 56.30300140380858 L -0.2721022963523865 56.50299835205077 L -0.4569999873638153 57.04600143432616 L -0.6038835048675537 57.34400177001952 L -0.8040000200271606 57.749999999999986 L -1.2400000095367432 58.40299987792967 L -1.7569999694824219 58.993000030517564 L -2.3469998836517334 59.50999832153319 L -3 59.9459991455078 L -3.7039999961853027 60.29299926757811 L -4.447000026702881 60.54600143432616 L -5.2170000076293945 60.699001312255845 L -6 60.749999999999986 L -6.002999782562256 60.74980545043944 L -6.002999782562256 60.749999999999986 L -6.526333332061768 60.749999999999986 L -6.953901290893555 60.749999999999986 L -8.192000389099121 60.749999999999986 L -8.237913131713867 60.749999999999986 L -8.703391075134277 60.749999999999986 L -9.192936897277832 60.749999999999986 L -9.717307090759277 60.749999999999986 L -12 60.749999999999986 L -79.37699890136719 60.749999999999986 L -83.99800109863281 60.749999999999986 L -83.99800109863281 60.749870300292955 L -84 60.749999999999986 L -84.78299713134766 60.699001312255845 L -85.5530014038086 60.54600143432616 L -86.2959976196289 60.29299926757811 L -87 59.9459991455078 L -87.65299987792969 59.50999832153319 L -88.24299621582031 58.993000030517564 L -88.76000213623047 58.40299987792967 L -89.19599914550781 57.749999999999986 L -89.3961181640625 57.34400177001952 L -89.54299926757812 57.04600143432616 L -89.7959976196289 56.30300140380858 L -89.9489974975586 55.53300094604491 M -79.37699890136719 2.692041635513305 L -79.37699890136719 2.7499999999999996 L -79.37699890136719 2.7774286270141597 L -79.37699890136719 2.8729999065399165 L -79.36699676513672 3.019999980926513 L -79.35688781738281 3.07200002670288 L -79.33899688720703 3.1640000343322745 L -79.29100036621094 3.30399990081787 L -79.22599792480469 3.436000108718871 L -79.1449966430664 3.558000087738036 L -79.0479965209961 3.6689999103546134 L -78.93699645996094 3.766000032424926 L -78.81500244140625 3.8469998836517325 L -78.68299865722656 3.9130001068115225 L -78.54299926757812 3.9600000381469718 L -78.39900207519531 3.9890000820159903 L -78.25199890136719 3.997999906539916 L -78.1050033569336 3.9890000820159903 L -77.96099853515625 3.9600000381469718 L -77.8239974975586 3.9136762619018546 L -77.8219985961914 3.9130001068115225 L -77.69000244140625 3.8469998836517325 L -77.56700134277344 3.766000032424926 L -77.45700073242188 3.6689999103546134 L -77.35900115966797 3.558000087738036 L -77.27799987792969 3.436000108718871 L -77.21299743652344 3.30399990081787 L -77.16500091552734 3.1640000343322745 L -77.14710998535156 3.07200002670288 L -77.13700103759766 3.019999980926513 L -77.12699890136719 2.8729999065399165 L -77.12699890136719 2.7499999999999996 L -77.12699890136719 2.7185714244842525 L -77.12699890136719 2.6229999065399165 L -77.13700103759766 2.476000070571899 L -77.16316223144531 2.3414709568023677 L -77.16500091552734 2.3320000171661373 L -77.21299743652344 2.1930000782012935 L -77.25867462158203 2.1002457141876216 L -77.27799987792969 2.0610001087188716 L -77.28656005859375 2.04800009727478 L -77.35900115966797 1.9379999637603755 L -77.45700073242188 1.8279999494552608 L -77.54772186279297 1.748000025749206 L -77.56700134277344 1.7309999465942378 L -77.69000244140625 1.6490000486373897 L -77.8219985961914 1.5839999914169307 L -77.8239974975586 1.583309412002563 L -77.96099853515625 1.53600001335144 L -78 1.5284166336059566 L -78.1050033569336 1.508000016212463 L -78.25199890136719 1.4980000257492065 L -78.39900207519531 1.508000016212463 L -78.54299926757812 1.53600001335144 L -78.68299865722656 1.5839999914169307 L -78.81500244140625 1.6490000486373897 L -78.93699645996094 1.7309999465942378 L -78.95645141601562 1.748000025749206 L -79.01592254638672 1.7999674081802364 L -79.0479965209961 1.8279999494552608 L -79.09355926513672 1.8796674013137813 L -79.1078109741211 1.8958238363265987 L -79.1449966430664 1.9379999637603755 L -79.19126892089844 2.008264541625976 L -79.21743774414062 2.04800009727478 L -79.22599792480469 2.0610001087188716 L -79.29100036621094 2.1930000782012935 L -79.33899688720703 2.3320000171661373 L -79.33907318115234 2.332358121871948 L -79.35795593261719 2.42949891090393 L -79.36153411865234 2.4478776454925533 L -79.36699676513672 2.476000070571899 L -79.3707275390625 2.5307688713073726 L -79.37657928466797 2.6167879104614253 L -79.37699890136719 2.6229999065399165 L -79.37699890136719 2.692041635513305 M -84.10600280761719 56.48799896240233 L -83.99800109863281 56.495075225830064 L -83.96800231933594 56.49703979492186 L -83.87699890136719 56.50299835205077 L -83.64900207519531 56.48799896240233 L -83.42400360107422 56.44300079345702 L -83.20800018310547 56.36899948120116 L -83.00199890136719 56.26800155639647 L -82.81199645996094 56.14099884033202 L -82.63999938964844 55.99000167846678 L -82.48899841308594 55.81800079345702 L -82.36199951171875 55.62699890136717 L -82.26100158691406 55.42200088500975 L -82.21803283691406 55.29600143432616 L -82.18699645996094 55.20500183105467 L -82.14199829101562 54.98099899291991 L -82.12699890136719 54.75199890136717 L -82.14199829101562 54.52399826049803 L -82.18699645996094 54.29899978637694 L -82.26100158691406 54.083000183105455 L -82.36199951171875 53.87699890136717 L -82.48899841308594 53.68700027465819 L -82.63999938964844 53.51499938964842 L -82.81199645996094 53.36399841308592 L -82.98554229736328 53.2480010986328 L -83.00199890136719 53.236999511718736 L -83.20800018310547 53.13499832153319 L -83.42400360107422 53.06200027465819 L -83.64900207519531 53.01699829101561 L -83.87699890136719 53.00199890136717 L -83.99800109863281 53.00992584228514 L -84.10600280761719 53.01699829101561 L -84.33000183105469 53.06200027465819 L -84.5469970703125 53.13499832153319 L -84.75199890136719 53.236999511718736 L -84.76854705810547 53.2480010986328 L -84.94300079345703 53.36399841308592 L -85.11499786376953 53.51499938964842 L -85.26599884033203 53.68700027465819 L -85.39299774169922 53.87699890136717 L -85.49400329589844 54.083000183105455 L -85.56800079345703 54.29899978637694 L -85.61299896240234 54.52399826049803 L -85.62773895263672 54.7480010986328 L -85.62799835205078 54.75199890136717 L -85.61299896240234 54.98099899291991 L -85.56800079345703 55.20500183105467 L -85.5369644165039 55.29600143432616 L -85.49400329589844 55.42200088500975 L -85.39299774169922 55.62699890136717 L -85.26599884033203 55.81800079345702 L -85.11499786376953 55.99000167846678 L -84.94300079345703 56.14099884033202 L -84.75199890136719 56.26800155639647 L -84.5469970703125 56.36899948120116 L -84.33000183105469 56.44300079345702 L -84.10600280761719 56.48799896240233 M -12.453412055969238 3.747999906539916 L -12.432999610900879 3.766000032424926 L -12.3100004196167 3.8469998836517325 L -12.288000106811523 3.8580000400543204 L -12.178000450134277 3.9130001068115225 L -12.038999557495117 3.9600000381469718 L -12 3.9678542613983145 L -11.895000457763672 3.9890000820159903 L -11.748000144958496 3.997999906539916 L -11.60099983215332 3.9890000820159903 L -11.456999778747559 3.9600000381469718 L -11.317000389099121 3.9130001068115225 L -11.263999938964844 3.886499881744384 L -11.1850004196167 3.8469998836517325 L -11.062999725341797 3.766000032424926 L -11.042402267456055 3.747999906539916 L -10.989242553710938 3.7015454769134513 L -10.95199966430664 3.6689999103546134 L -10.887625694274902 3.595334291458129 L -10.854999542236328 3.558000087738036 L -10.812196731567383 3.493530273437499 L -10.77400016784668 3.436000108718871 L -10.744929313659668 3.376964807510375 L -10.708999633789062 3.30399990081787 L -10.698775291442871 3.274178981781005 L -10.661343574523926 3.165003299713134 L -10.66100025177002 3.1640000343322745 L -10.643111228942871 3.07200002670288 L -10.633000373840332 3.019999980926513 L -10.623501777648926 2.880372285842895 L -10.623000144958496 2.8729999065399165 L -10.623000144958496 2.7499999999999996 L -10.623000144958496 2.6229999065399165 L -10.633000373840332 2.476000070571899 L -10.66100025177002 2.3320000171661373 L -10.708999633789062 2.1930000782012935 L -10.77400016784668 2.0610001087188716 L -10.782561302185059 2.04800009727478 L -10.854999542236328 1.9379999637603755 L -10.95199966430664 1.8279999494552608 L -11.062999725341797 1.7309999465942378 L -11.1850004196167 1.6490000486373897 L -11.317000389099121 1.5839999914169307 L -11.456999778747559 1.53600001335144 L -11.60099983215332 1.508000016212463 L -11.748000144958496 1.4980000257492065 L -11.895000457763672 1.508000016212463 L -12 1.5284166336059566 L -12.038999557495117 1.53600001335144 L -12.178000450134277 1.5839999914169307 L -12.288000106811523 1.6381666660308833 L -12.3100004196167 1.6490000486373897 L -12.432999610900879 1.7309999465942378 L -12.543000221252441 1.8279999494552608 L -12.640999794006348 1.9379999637603755 L -12.713438987731934 2.04800009727478 L -12.722000122070312 2.0610001087188716 L -12.786999702453613 2.1930000782012935 L -12.835000038146973 2.3320000171661373 L -12.86299991607666 2.476000070571899 L -12.873000144958496 2.6229999065399165 L -12.873000144958496 2.7499999999999996 L -12.873000144958496 2.8729999065399165 L -12.86299991607666 3.019999980926513 L -12.852889060974121 3.07200002670288 L -12.836841583251953 3.154529094696044 L -12.835000038146973 3.1640000343322745 L -12.786999702453613 3.30399990081787 L -12.74100399017334 3.397406816482543 L -12.722000122070312 3.436000108718871 L -12.640999794006348 3.558000087738036 L -12.597185134887695 3.6076271533966056 L -12.543000221252441 3.6689999103546134 L -12.453412055969238 3.747999906539916 M -78.39900207519531 49.99200057983397 L -78.25199890136719 50.00199890136717 L -78.1050033569336 49.99200057983397 L -77.96099853515625 49.96400070190428 L -77.8239974975586 49.916690826416 L -77.8219985961914 49.91600036621092 L -77.69000244140625 49.85100173950194 L -77.56700134277344 49.769001007080064 L -77.45700073242188 49.67200088500975 L -77.35900115966797 49.56200027465819 L -77.27799987792969 49.438999176025376 L -77.21299743652344 49.306999206542955 L -77.16500091552734 49.16799926757811 L -77.1618881225586 49.15200042724608 L -77.13700103759766 49.02399826049803 L -77.12699890136719 48.87699890136717 L -77.12699890136719 48.807956695556626 L -77.12699890136719 48.72257232666014 L -77.12699890136719 48.62699890136717 L -77.13700103759766 48.479999542236314 L -77.16316223144531 48.34547042846678 L -77.16500091552734 48.335998535156236 L -77.21299743652344 48.1959991455078 L -77.25899505615234 48.102592468261705 L -77.27799987792969 48.063999176025376 L -77.35900115966797 47.94200134277343 L -77.40281677246094 47.89237213134765 L -77.45700073242188 47.831001281738274 L -77.54658508300781 47.75199890136718 L -77.56700134277344 47.73400115966796 L -77.69000244140625 47.65299987792968 L -77.8219985961914 47.5870018005371 L -77.8239974975586 47.58632278442382 L -77.96099853515625 47.54000091552734 L -78.1050033569336 47.511001586914055 L -78.25199890136719 47.50199890136718 L -78.39900207519531 47.511001586914055 L -78.54299926757812 47.54000091552734 L -78.68299865722656 47.5870018005371 L -78.81500244140625 47.65299987792968 L -78.93699645996094 47.73400115966796 L -78.95759582519531 47.75199890136718 L -79.0479965209961 47.831001281738274 L -79.1449966430664 47.94200134277343 L -79.22599792480469 48.063999176025376 L -79.25751495361328 48.12799835205077 L -79.29100036621094 48.1959991455078 L -79.30122375488281 48.225822448730455 L -79.33865356445312 48.334995269775376 L -79.33899688720703 48.335998535156236 L -79.35850524902344 48.43632125854491 L -79.36699676513672 48.479999542236314 L -79.37051391601562 48.53166198730467 L -79.37649536132812 48.619628906249986 L -79.37699890136719 48.62699890136717 L -79.37699890136719 48.69683456420897 L -79.37699890136719 48.78142929077147 L -79.37699890136719 48.87699890136717 L -79.36699676513672 49.02399826049803 L -79.34210968017578 49.15200042724608 L -79.33899688720703 49.16799926757811 L -79.29100036621094 49.306999206542955 L -79.22599792480469 49.438999176025376 L -79.1449966430664 49.56200027465819 L -79.0479965209961 49.67200088500975 L -78.93699645996094 49.769001007080064 L -78.81500244140625 49.85100173950194 L -78.68299865722656 49.91600036621092 L -78.54299926757812 49.96400070190428 L -78.39900207519531 49.99200057983397 M -12.86299991607666 48.479999542236314 L -12.873000144958496 48.62699890136717 L -12.873000144958496 48.87699890136717 L -12.86299991607666 49.02399826049803 L -12.83811092376709 49.15200042724608 L -12.835000038146973 49.16799926757811 L -12.786999702453613 49.306999206542955 L -12.722000122070312 49.438999176025376 L -12.640999794006348 49.56200027465819 L -12.543000221252441 49.67200088500975 L -12.452278137207031 49.75199890136717 L -12.432999610900879 49.769001007080064 L -12.3100004196167 49.85100173950194 L -12.288000106811523 49.86183166503905 L -12.178000450134277 49.91600036621092 L -12.038999557495117 49.96400070190428 L -12 49.971584320068345 L -11.895000457763672 49.99200057983397 L -11.748000144958496 50.00199890136717 L -11.60099983215332 49.99200057983397 L -11.456999778747559 49.96400070190428 L -11.317000389099121 49.91600036621092 L -11.263999938964844 49.88990020751952 L -11.1850004196167 49.85100173950194 L -11.062999725341797 49.769001007080064 L -11.043546676635742 49.75199890136717 L -10.984078407287598 49.700031280517564 L -10.95199966430664 49.67200088500975 L -10.892191886901855 49.60417556762694 L -10.854999542236328 49.56200027465819 L -10.808728218078613 49.491733551025376 L -10.77400016784668 49.438999176025376 L -10.747746467590332 49.385684967041 L -10.708999633789062 49.306999206542955 L -10.69733715057373 49.273227691650376 L -10.66100025177002 49.16799926757811 L -10.660930633544922 49.16764068603514 L -10.657888412475586 49.15200042724608 L -10.638467788696289 49.052124023437486 L -10.633000373840332 49.02399826049803 L -10.623422622680664 48.883213043212876 L -10.623000144958496 48.87699890136717 L -10.623000144958496 48.749999999999986 L -10.623000144958496 48.62699890136717 L -10.633000373840332 48.479999542236314 L -10.66100025177002 48.335998535156236 L -10.708999633789062 48.1959991455078 L -10.77400016784668 48.063999176025376 L -10.854999542236328 47.94200134277343 L -10.95199966430664 47.831001281738274 L -11.062999725341797 47.73400115966796 L -11.1850004196167 47.65299987792968 L -11.263999938964844 47.61349868774413 L -11.317000389099121 47.5870018005371 L -11.456999778747559 47.54000091552734 L -11.60099983215332 47.511001586914055 L -11.748000144958496 47.50199890136718 L -11.895000457763672 47.511001586914055 L -12 47.532146453857415 L -12.038999557495117 47.54000091552734 L -12.178000450134277 47.5870018005371 L -12.288000106811523 47.64199829101562 L -12.3100004196167 47.65299987792968 L -12.432999610900879 47.73400115966796 L -12.543000221252441 47.831001281738274 L -12.640999794006348 47.94200134277343 L -12.722000122070312 48.063999176025376 L -12.786999702453613 48.1959991455078 L -12.835000038146973 48.335998535156236 L -12.86299991607666 48.479999542236314 M -84.10600280761719 -1.5169999599456783 L -83.96800231933594 -1.5079606771469112 L -83.87699890136719 -1.501999974250793 L -83.64900207519531 -1.5169999599456783 L -83.42400360107422 -1.5620000362396236 L -83.20800018310547 -1.6349999904632564 L -83.00199890136719 -1.7369999885559078 L -82.81199645996094 -1.8639999628067012 L -82.63999938964844 -2.0150001049041744 L -82.61103057861328 -2.04800009727478 L -82.48899841308594 -2.1870000362396236 L -82.36199951171875 -2.3770000934600826 L -82.26100158691406 -2.582999944686889 L -82.18699645996094 -2.799000024795532 L -82.14199829101562 -3.0239999294280997 L -82.12699890136719 -3.252000093460082 L -82.14199829101562 -3.4809999465942374 L -82.18699645996094 -3.704999923706054 L -82.26100158691406 -3.9219999313354483 L -82.34672546386719 -4.09600019454956 L -82.36199951171875 -4.126999855041503 L -82.48899841308594 -4.317999839782714 L -82.63999938964844 -4.489999771118163 L -82.81199645996094 -4.640999794006347 L -83.00199890136719 -4.768000125885009 L -83.20800018310547 -4.868999958038329 L -83.42400360107422 -4.942999839782714 L -83.64900207519531 -4.987999916076659 L -83.87699890136719 -5.002999782562255 L -83.96800231933594 -4.997039318084716 L -84.10600280761719 -4.987999916076659 L -84.33000183105469 -4.942999839782714 L -84.5469970703125 -4.868999958038329 L -84.75199890136719 -4.768000125885009 L -84.94300079345703 -4.640999794006347 L -85.11499786376953 -4.489999771118163 L -85.26599884033203 -4.317999839782714 L -85.39299774169922 -4.126999855041503 L -85.40827178955078 -4.09600019454956 L -85.49400329589844 -3.9219999313354483 L -85.56800079345703 -3.704999923706054 L -85.61299896240234 -3.4809999465942374 L -85.62799835205078 -3.252000093460082 L -85.61299896240234 -3.0239999294280997 L -85.56800079345703 -2.799000024795532 L -85.49400329589844 -2.582999944686889 L -85.39299774169922 -2.3770000934600826 L -85.26599884033203 -2.1870000362396236 L -85.14397430419922 -2.04800009727478 L -85.11499786376953 -2.0150001049041744 L -84.94300079345703 -1.8639999628067012 L -84.75199890136719 -1.7369999885559078 L -84.5469970703125 -1.6349999904632564 L -84.33000183105469 -1.5620000362396236 L -84.10600280761719 -1.5169999599456783 M -6.144000053405762 -1.5033816099166866 L -6.123000144958496 -1.501999974250793 L -5.894000053405762 -1.5169999599456783 L -5.670000076293945 -1.5620000362396236 L -5.453000068664551 -1.6349999904632564 L -5.248000144958496 -1.7369999885559078 L -5.057000160217285 -1.8639999628067012 L -4.885000228881836 -2.0150001049041744 L -4.856029033660889 -2.04800009727478 L -4.734000205993652 -2.1870000362396236 L -4.60699987411499 -2.3770000934600826 L -4.50600004196167 -2.582999944686889 L -4.432000160217285 -2.799000024795532 L -4.38700008392334 -3.0239999294280997 L -4.373000144958496 -3.252000093460082 L -4.38700008392334 -3.4809999465942374 L -4.432000160217285 -3.704999923706054 L -4.50600004196167 -3.9219999313354483 L -4.591726779937744 -4.09600019454956 L -4.60699987411499 -4.126999855041503 L -4.734000205993652 -4.317999839782714 L -4.885000228881836 -4.489999771118163 L -5.057000160217285 -4.640999794006347 L -5.248000144958496 -4.768000125885009 L -5.453000068664551 -4.868999958038329 L -5.670000076293945 -4.942999839782714 L -5.894000053405762 -4.987999916076659 L -6.123000144958496 -5.002999782562255 L -6.144000053405762 -5.0016183853149405 L -6.35099983215332 -4.987999916076659 L -6.576000213623047 -4.942999839782714 L -6.791999816894531 -4.868999958038329 L -6.998000144958496 -4.768000125885009 L -7.188000202178955 -4.640999794006347 L -7.360000133514404 -4.489999771118163 L -7.511000156402588 -4.317999839782714 L -7.638000011444092 -4.126999855041503 L -7.653273105621338 -4.09600019454956 L -7.738999843597412 -3.9219999313354483 L -7.813000202178955 -3.704999923706054 L -7.857999801635742 -3.4809999465942374 L -7.873000144958496 -3.252000093460082 L -7.857999801635742 -3.0239999294280997 L -7.813000202178955 -2.799000024795532 L -7.738999843597412 -2.582999944686889 L -7.638000011444092 -2.3770000934600826 L -7.511000156402588 -2.1870000362396236 L -7.388970851898193 -2.04800009727478 L -7.360000133514404 -2.0150001049041744 L -7.188000202178955 -1.8639999628067012 L -6.998000144958496 -1.7369999885559078 L -6.791999816894531 -1.6349999904632564 L -6.576000213623047 -1.5620000362396236 L -6.35099983215332 -1.5169999599456783 L -6.144000053405762 -1.5033816099166866 M -6.144000053405762 56.50161743164061 L -6.123000144958496 56.50299835205077 L -5.894000053405762 56.48799896240233 L -5.670000076293945 56.44300079345702 L -5.453000068664551 56.36899948120116 L -5.248000144958496 56.26800155639647 L -5.057000160217285 56.14099884033202 L -4.885000228881836 55.99000167846678 L -4.734000205993652 55.81800079345702 L -4.60699987411499 55.62699890136717 L -4.50600004196167 55.42200088500975 L -4.463032245635986 55.29600143432616 L -4.432000160217285 55.20500183105467 L -4.38700008392334 54.98099899291991 L -4.373000144958496 54.75199890136717 L -4.38700008392334 54.52399826049803 L -4.432000160217285 54.29899978637694 L -4.50600004196167 54.083000183105455 L -4.60699987411499 53.87699890136717 L -4.734000205993652 53.68700027465819 L -4.885000228881836 53.51499938964842 L -5.057000160217285 53.36399841308592 L -5.231456756591797 53.2480010986328 L -5.248000144958496 53.236999511718736 L -5.453000068664551 53.13499832153319 L -5.670000076293945 53.06200027465819 L -5.894000053405762 53.01699829101561 L -6.123000144958496 53.00199890136717 L -6.35099983215332 53.01699829101561 L -6.576000213623047 53.06200027465819 L -6.791999816894531 53.13499832153319 L -6.998000144958496 53.236999511718736 L -7.014456748962402 53.2480010986328 L -7.188000202178955 53.36399841308592 L -7.360000133514404 53.51499938964842 L -7.511000156402588 53.68700027465819 L -7.638000011444092 53.87699890136717 L -7.738999843597412 54.083000183105455 L -7.813000202178955 54.29899978637694 L -7.857999801635742 54.52399826049803 L -7.873000144958496 54.75199890136717 L -7.857999801635742 54.98099899291991 L -7.813000202178955 55.20500183105467 L -7.781967639923096 55.29600143432616 L -7.738999843597412 55.42200088500975 L -7.638000011444092 55.62699890136717 L -7.511000156402588 55.81800079345702 L -7.360000133514404 55.99000167846678 L -7.188000202178955 56.14099884033202 L -6.998000144958496 56.26800155639647 L -6.791999816894531 56.36899948120116 L -6.576000213623047 56.44300079345702 L -6.35099983215332 56.48799896240233 L -6.144000053405762 56.50161743164061 z" fill="none" stroke="rgb(255,0,0)" stroke-width="0.001mm" />
</svg>