999
"DXF R12 Output" (www.mydxf.blogspot.com)
 0 
SECTION
 2 
HEADER
 9 
$ACADVER
 1 
AC1009
 9 
$EXTMIN
 10 
 0 
 20 
 0 
 9 
$EXTMAX
 10 
 8.5 
 20 
 11 
 0 
ENDSEC
 0 
SECTION
 2 
ENTITIES
0
POLYLINE
8
Layer 1
62
10
70
0
10
0.000000
20
0.000000
66
1
0
VERTEX
8
Layer 1
10
-89.948997
20
16.466999
70
0
0
VERTEX
8
Layer 1
10
-90.000000
20
17.250000
70
0
0
VERTEX
8
Layer 1
10
-89.999870
20
17.251999
70
0
0
VERTEX
8
Layer 1
10
-90.000000
20
17.251999
70
0
0
VERTEX
8
Layer 1
10
-90.000000
20
69.250000
70
0
0
VERTEX
8
Layer 1
10
-90.000000
20
72.000000
70
0
0
VERTEX
8
Layer 1
10
-90.000000
20
75.248000
70
0
0
VERTEX
8
Layer 1
10
-89.999870
20
75.248000
70
0
0
VERTEX
8
Layer 1
10
-90.000000
20
75.250000
70
0
0
VERTEX
8
Layer 1
10
-89.948997
20
76.033000
70
0
0
VERTEX
8
Layer 1
10
-89.795998
20
76.803000
70
0
0
VERTEX
8
Layer 1
10
-89.542999
20
77.546000
70
0
0
VERTEX
8
Layer 1
10
-89.195999
20
78.250000
70
0
0
VERTEX
8
Layer 1
10
-88.760002
20
78.903000
70
0
0
VERTEX
8
Layer 1
10
-88.242996
20
79.493000
70
0
0
VERTEX
8
Layer 1
10
-87.653000
20
80.010000
70
0
0
VERTEX
8
Layer 1
10
-87.380417
20
80.192000
70
0
0
VERTEX
8
Layer 1
10
-87.000000
20
80.446000
70
0
0
VERTEX
8
Layer 1
10
-86.295998
20
80.793000
70
0
0
VERTEX
8
Layer 1
10
-85.553001
20
81.046000
70
0
0
VERTEX
8
Layer 1
10
-84.782997
20
81.199000
70
0
0
VERTEX
8
Layer 1
10
-84.000000
20
81.250000
70
0
0
VERTEX
8
Layer 1
10
-83.998001
20
81.249869
70
0
0
VERTEX
8
Layer 1
10
-83.998001
20
81.250000
70
0
0
VERTEX
8
Layer 1
10
-83.473663
20
81.250000
70
0
0
VERTEX
8
Layer 1
10
-83.046097
20
81.250000
70
0
0
VERTEX
8
Layer 1
10
-81.919998
20
81.250000
70
0
0
VERTEX
8
Layer 1
10
-81.762085
20
81.250000
70
0
0
VERTEX
8
Layer 1
10
-81.296608
20
81.250000
70
0
0
VERTEX
8
Layer 1
10
-80.807060
20
81.250000
70
0
0
VERTEX
8
Layer 1
10
-80.282692
20
81.250000
70
0
0
VERTEX
8
Layer 1
10
-79.718254
20
81.250000
70
0
0
VERTEX
8
Layer 1
10
-79.087624
20
81.250000
70
0
0
VERTEX
8
Layer 1
10
-78.390808
20
81.250000
70
0
0
VERTEX
8
Layer 1
10
-78.000000
20
81.250000
70
0
0
VERTEX
8
Layer 1
10
-77.126999
20
81.250000
70
0
0
VERTEX
8
Layer 1
10
-12.873000
20
81.250000
70
0
0
VERTEX
8
Layer 1
10
-12.000000
20
81.250000
70
0
0
VERTEX
8
Layer 1
10
-8.192000
20
81.250000
70
0
0
VERTEX
8
Layer 1
10
-6.003000
20
81.250000
70
0
0
VERTEX
8
Layer 1
10
-6.003000
20
81.249804
70
0
0
VERTEX
8
Layer 1
10
-6.000000
20
81.250000
70
0
0
VERTEX
8
Layer 1
10
-5.217000
20
81.199000
70
0
0
VERTEX
8
Layer 1
10
-4.447000
20
81.046000
70
0
0
VERTEX
8
Layer 1
10
-3.704000
20
80.793000
70
0
0
VERTEX
8
Layer 1
10
-3.000000
20
80.446000
70
0
0
VERTEX
8
Layer 1
10
-2.619583
20
80.192000
70
0
0
VERTEX
8
Layer 1
10
-2.347000
20
80.010000
70
0
0
VERTEX
8
Layer 1
10
-1.757000
20
79.493000
70
0
0
VERTEX
8
Layer 1
10
-1.240000
20
78.903000
70
0
0
VERTEX
8
Layer 1
10
-0.804000
20
78.250000
70
0
0
VERTEX
8
Layer 1
10
-0.457000
20
77.546000
70
0
0
VERTEX
8
Layer 1
10
-0.204000
20
76.803000
70
0
0
VERTEX
8
Layer 1
10
-0.051000
20
76.033000
70
0
0
VERTEX
8
Layer 1
10
0.000000
20
75.250000
70
0
0
VERTEX
8
Layer 1
10
-0.000130
20
75.248000
70
0
0
VERTEX
8
Layer 1
10
0.000000
20
75.248000
70
0
0
VERTEX
8
Layer 1
10
0.000000
20
74.723667
70
0
0
VERTEX
8
Layer 1
10
0.000000
20
74.296099
70
0
0
VERTEX
8
Layer 1
10
0.000000
20
73.881170
70
0
0
VERTEX
8
Layer 1
10
0.000000
20
73.454156
70
0
0
VERTEX
8
Layer 1
10
0.000000
20
72.000000
70
0
0
VERTEX
8
Layer 1
10
0.000000
20
71.532693
70
0
0
VERTEX
8
Layer 1
10
0.000000
20
70.968254
70
0
0
VERTEX
8
Layer 1
10
0.000000
20
70.337625
70
0
0
VERTEX
8
Layer 1
10
0.000000
20
69.640805
70
0
0
VERTEX
8
Layer 1
10
0.000000
20
69.250000
70
0
0
VERTEX
8
Layer 1
10
0.000000
20
68.002000
70
0
0
VERTEX
8
Layer 1
10
0.000000
20
23.250000
70
0
0
VERTEX
8
Layer 1
10
0.000000
20
22.848000
70
0
0
VERTEX
8
Layer 1
10
0.000000
20
17.251999
70
0
0
VERTEX
8
Layer 1
10
-0.000130
20
17.251999
70
0
0
VERTEX
8
Layer 1
10
0.000000
20
17.250000
70
0
0
VERTEX
8
Layer 1
10
-0.051000
20
16.466999
70
0
0
VERTEX
8
Layer 1
10
-0.204000
20
15.696999
70
0
0
VERTEX
8
Layer 1
10
-0.272102
20
15.497002
70
0
0
VERTEX
8
Layer 1
10
-0.457000
20
14.953999
70
0
0
VERTEX
8
Layer 1
10
-0.603884
20
14.655998
70
0
0
VERTEX
8
Layer 1
10
-0.804000
20
14.250000
70
0
0
VERTEX
8
Layer 1
10
-1.240000
20
13.597000
70
0
0
VERTEX
8
Layer 1
10
-1.757000
20
13.007000
70
0
0
VERTEX
8
Layer 1
10
-2.347000
20
12.490002
70
0
0
VERTEX
8
Layer 1
10
-3.000000
20
12.054001
70
0
0
VERTEX
8
Layer 1
10
-3.704000
20
11.707001
70
0
0
VERTEX
8
Layer 1
10
-4.447000
20
11.453999
70
0
0
VERTEX
8
Layer 1
10
-5.217000
20
11.300999
70
0
0
VERTEX
8
Layer 1
10
-6.000000
20
11.250000
70
0
0
VERTEX
8
Layer 1
10
-6.003000
20
11.250195
70
0
0
VERTEX
8
Layer 1
10
-6.003000
20
11.250000
70
0
0
VERTEX
8
Layer 1
10
-6.526333
20
11.250000
70
0
0
VERTEX
8
Layer 1
10
-6.953901
20
11.250000
70
0
0
VERTEX
8
Layer 1
10
-8.192000
20
11.250000
70
0
0
VERTEX
8
Layer 1
10
-8.237913
20
11.250000
70
0
0
VERTEX
8
Layer 1
10
-8.703391
20
11.250000
70
0
0
VERTEX
8
Layer 1
10
-9.192937
20
11.250000
70
0
0
VERTEX
8
Layer 1
10
-9.717307
20
11.250000
70
0
0
VERTEX
8
Layer 1
10
-12.000000
20
11.250000
70
0
0
VERTEX
8
Layer 1
10
-79.376999
20
11.250000
70
0
0
VERTEX
8
Layer 1
10
-83.998001
20
11.250000
70
0
0
VERTEX
8
Layer 1
10
-83.998001
20
11.250130
70
0
0
VERTEX
8
Layer 1
10
-84.000000
20
11.250000
70
0
0
VERTEX
8
Layer 1
10
-84.782997
20
11.300999
70
0
0
VERTEX
8
Layer 1
10
-85.553001
20
11.453999
70
0
0
VERTEX
8
Layer 1
10
-86.295998
20
11.707001
70
0
0
VERTEX
8
Layer 1
10
-87.000000
20
12.054001
70
0
0
VERTEX
8
Layer 1
10
-87.653000
20
12.490002
70
0
0
VERTEX
8
Layer 1
10
-88.242996
20
13.007000
70
0
0
VERTEX
8
Layer 1
10
-88.760002
20
13.597000
70
0
0
VERTEX
8
Layer 1
10
-89.195999
20
14.250000
70
0
0
VERTEX
8
Layer 1
10
-89.396118
20
14.655998
70
0
0
VERTEX
8
Layer 1
10
-89.542999
20
14.953999
70
0
0
VERTEX
8
Layer 1
10
-89.795998
20
15.696999
70
0
0
VERTEX
8
Layer 1
10
-89.948997
20
16.466999
70
0
0
SEQEND
8
Layer 1
0
POLYLINE
8
Layer 1
62
10
70
0
10
0.000000
20
0.000000
66
1
0
VERTEX
8
Layer 1
10
-79.376999
20
69.307958
70
0
0
VERTEX
8
Layer 1
10
-79.376999
20
69.250000
70
0
0
VERTEX
8
Layer 1
10
-79.376999
20
69.222571
70
0
0
VERTEX
8
Layer 1
10
-79.376999
20
69.127000
70
0
0
VERTEX
8
Layer 1
10
-79.366997
20
68.980000
70
0
0
VERTEX
8
Layer 1
10
-79.356888
20
68.928000
70
0
0
VERTEX
8
Layer 1
10
-79.338997
20
68.836000
70
0
0
VERTEX
8
Layer 1
10
-79.291000
20
68.696000
70
0
0
VERTEX
8
Layer 1
10
-79.225998
20
68.564000
70
0
0
VERTEX
8
Layer 1
10
-79.144997
20
68.442000
70
0
0
VERTEX
8
Layer 1
10
-79.047997
20
68.331000
70
0
0
VERTEX
8
Layer 1
10
-78.936996
20
68.234000
70
0
0
VERTEX
8
Layer 1
10
-78.815002
20
68.153000
70
0
0
VERTEX
8
Layer 1
10
-78.682999
20
68.087000
70
0
0
VERTEX
8
Layer 1
10
-78.542999
20
68.040000
70
0
0
VERTEX
8
Layer 1
10
-78.399002
20
68.011000
70
0
0
VERTEX
8
Layer 1
10
-78.251999
20
68.002000
70
0
0
VERTEX
8
Layer 1
10
-78.105003
20
68.011000
70
0
0
VERTEX
8
Layer 1
10
-77.960999
20
68.040000
70
0
0
VERTEX
8
Layer 1
10
-77.823997
20
68.086324
70
0
0
VERTEX
8
Layer 1
10
-77.821999
20
68.087000
70
0
0
VERTEX
8
Layer 1
10
-77.690002
20
68.153000
70
0
0
VERTEX
8
Layer 1
10
-77.567001
20
68.234000
70
0
0
VERTEX
8
Layer 1
10
-77.457001
20
68.331000
70
0
0
VERTEX
8
Layer 1
10
-77.359001
20
68.442000
70
0
0
VERTEX
8
Layer 1
10
-77.278000
20
68.564000
70
0
0
VERTEX
8
Layer 1
10
-77.212997
20
68.696000
70
0
0
VERTEX
8
Layer 1
10
-77.165001
20
68.836000
70
0
0
VERTEX
8
Layer 1
10
-77.147110
20
68.928000
70
0
0
VERTEX
8
Layer 1
10
-77.137001
20
68.980000
70
0
0
VERTEX
8
Layer 1
10
-77.126999
20
69.127000
70
0
0
VERTEX
8
Layer 1
10
-77.126999
20
69.250000
70
0
0
VERTEX
8
Layer 1
10
-77.126999
20
69.281429
70
0
0
VERTEX
8
Layer 1
10
-77.126999
20
69.377000
70
0
0
VERTEX
8
Layer 1
10
-77.137001
20
69.524000
70
0
0
VERTEX
8
Layer 1
10
-77.163162
20
69.658529
70
0
0
VERTEX
8
Layer 1
10
-77.165001
20
69.668000
70
0
0
VERTEX
8
Layer 1
10
-77.212997
20
69.807000
70
0
0
VERTEX
8
Layer 1
10
-77.258675
20
69.899754
70
0
0
VERTEX
8
Layer 1
10
-77.278000
20
69.939000
70
0
0
VERTEX
8
Layer 1
10
-77.286560
20
69.952000
70
0
0
VERTEX
8
Layer 1
10
-77.359001
20
70.062000
70
0
0
VERTEX
8
Layer 1
10
-77.457001
20
70.172000
70
0
0
VERTEX
8
Layer 1
10
-77.547722
20
70.252000
70
0
0
VERTEX
8
Layer 1
10
-77.567001
20
70.269000
70
0
0
VERTEX
8
Layer 1
10
-77.690002
20
70.351000
70
0
0
VERTEX
8
Layer 1
10
-77.821999
20
70.416000
70
0
0
VERTEX
8
Layer 1
10
-77.823997
20
70.416691
70
0
0
VERTEX
8
Layer 1
10
-77.960999
20
70.464000
70
0
0
VERTEX
8
Layer 1
10
-78.000000
20
70.471583
70
0
0
VERTEX
8
Layer 1
10
-78.105003
20
70.492000
70
0
0
VERTEX
8
Layer 1
10
-78.251999
20
70.502000
70
0
0
VERTEX
8
Layer 1
10
-78.399002
20
70.492000
70
0
0
VERTEX
8
Layer 1
10
-78.542999
20
70.464000
70
0
0
VERTEX
8
Layer 1
10
-78.682999
20
70.416000
70
0
0
VERTEX
8
Layer 1
10
-78.815002
20
70.351000
70
0
0
VERTEX
8
Layer 1
10
-78.936996
20
70.269000
70
0
0
VERTEX
8
Layer 1
10
-78.956451
20
70.252000
70
0
0
VERTEX
8
Layer 1
10
-79.015923
20
70.200033
70
0
0
VERTEX
8
Layer 1
10
-79.047997
20
70.172000
70
0
0
VERTEX
8
Layer 1
10
-79.093559
20
70.120333
70
0
0
VERTEX
8
Layer 1
10
-79.107811
20
70.104176
70
0
0
VERTEX
8
Layer 1
10
-79.144997
20
70.062000
70
0
0
VERTEX
8
Layer 1
10
-79.191269
20
69.991735
70
0
0
VERTEX
8
Layer 1
10
-79.217438
20
69.952000
70
0
0
VERTEX
8
Layer 1
10
-79.225998
20
69.939000
70
0
0
VERTEX
8
Layer 1
10
-79.291000
20
69.807000
70
0
0
VERTEX
8
Layer 1
10
-79.338997
20
69.668000
70
0
0
VERTEX
8
Layer 1
10
-79.339073
20
69.667642
70
0
0
VERTEX
8
Layer 1
10
-79.357956
20
69.570501
70
0
0
VERTEX
8
Layer 1
10
-79.361534
20
69.552122
70
0
0
VERTEX
8
Layer 1
10
-79.366997
20
69.524000
70
0
0
VERTEX
8
Layer 1
10
-79.370728
20
69.469231
70
0
0
VERTEX
8
Layer 1
10
-79.376579
20
69.383212
70
0
0
VERTEX
8
Layer 1
10
-79.376999
20
69.377000
70
0
0
VERTEX
8
Layer 1
10
-79.376999
20
69.307958
70
0
0
SEQEND
8
Layer 1
0
POLYLINE
8
Layer 1
62
10
70
0
10
0.000000
20
0.000000
66
1
0
VERTEX
8
Layer 1
10
-84.106003
20
15.512001
70
0
0
VERTEX
8
Layer 1
10
-83.998001
20
15.504925
70
0
0
VERTEX
8
Layer 1
10
-83.968002
20
15.502960
70
0
0
VERTEX
8
Layer 1
10
-83.876999
20
15.497002
70
0
0
VERTEX
8
Layer 1
10
-83.649002
20
15.512001
70
0
0
VERTEX
8
Layer 1
10
-83.424004
20
15.556999
70
0
0
VERTEX
8
Layer 1
10
-83.208000
20
15.631001
70
0
0
VERTEX
8
Layer 1
10
-83.001999
20
15.731998
70
0
0
VERTEX
8
Layer 1
10
-82.811996
20
15.859001
70
0
0
VERTEX
8
Layer 1
10
-82.639999
20
16.009998
70
0
0
VERTEX
8
Layer 1
10
-82.488998
20
16.181999
70
0
0
VERTEX
8
Layer 1
10
-82.362000
20
16.373001
70
0
0
VERTEX
8
Layer 1
10
-82.261002
20
16.577999
70
0
0
VERTEX
8
Layer 1
10
-82.218033
20
16.703999
70
0
0
VERTEX
8
Layer 1
10
-82.186996
20
16.794998
70
0
0
VERTEX
8
Layer 1
10
-82.141998
20
17.019001
70
0
0
VERTEX
8
Layer 1
10
-82.126999
20
17.248001
70
0
0
VERTEX
8
Layer 1
10
-82.141998
20
17.476002
70
0
0
VERTEX
8
Layer 1
10
-82.186996
20
17.701000
70
0
0
VERTEX
8
Layer 1
10
-82.261002
20
17.917000
70
0
0
VERTEX
8
Layer 1
10
-82.362000
20
18.123001
70
0
0
VERTEX
8
Layer 1
10
-82.488998
20
18.313000
70
0
0
VERTEX
8
Layer 1
10
-82.639999
20
18.485001
70
0
0
VERTEX
8
Layer 1
10
-82.811996
20
18.636002
70
0
0
VERTEX
8
Layer 1
10
-82.985542
20
18.751999
70
0
0
VERTEX
8
Layer 1
10
-83.001999
20
18.763000
70
0
0
VERTEX
8
Layer 1
10
-83.208000
20
18.865002
70
0
0
VERTEX
8
Layer 1
10
-83.424004
20
18.938000
70
0
0
VERTEX
8
Layer 1
10
-83.649002
20
18.983002
70
0
0
VERTEX
8
Layer 1
10
-83.876999
20
18.998001
70
0
0
VERTEX
8
Layer 1
10
-83.998001
20
18.990074
70
0
0
VERTEX
8
Layer 1
10
-84.106003
20
18.983002
70
0
0
VERTEX
8
Layer 1
10
-84.330002
20
18.938000
70
0
0
VERTEX
8
Layer 1
10
-84.546997
20
18.865002
70
0
0
VERTEX
8
Layer 1
10
-84.751999
20
18.763000
70
0
0
VERTEX
8
Layer 1
10
-84.768547
20
18.751999
70
0
0
VERTEX
8
Layer 1
10
-84.943001
20
18.636002
70
0
0
VERTEX
8
Layer 1
10
-85.114998
20
18.485001
70
0
0
VERTEX
8
Layer 1
10
-85.265999
20
18.313000
70
0
0
VERTEX
8
Layer 1
10
-85.392998
20
18.123001
70
0
0
VERTEX
8
Layer 1
10
-85.494003
20
17.917000
70
0
0
VERTEX
8
Layer 1
10
-85.568001
20
17.701000
70
0
0
VERTEX
8
Layer 1
10
-85.612999
20
17.476002
70
0
0
VERTEX
8
Layer 1
10
-85.627739
20
17.251999
70
0
0
VERTEX
8
Layer 1
10
-85.627998
20
17.248001
70
0
0
VERTEX
8
Layer 1
10
-85.612999
20
17.019001
70
0
0
VERTEX
8
Layer 1
10
-85.568001
20
16.794998
70
0
0
VERTEX
8
Layer 1
10
-85.536964
20
16.703999
70
0
0
VERTEX
8
Layer 1
10
-85.494003
20
16.577999
70
0
0
VERTEX
8
Layer 1
10
-85.392998
20
16.373001
70
0
0
VERTEX
8
Layer 1
10
-85.265999
20
16.181999
70
0
0
VERTEX
8
Layer 1
10
-85.114998
20
16.009998
70
0
0
VERTEX
8
Layer 1
10
-84.943001
20
15.859001
70
0
0
VERTEX
8
Layer 1
10
-84.751999
20
15.731998
70
0
0
VERTEX
8
Layer 1
10
-84.546997
20
15.631001
70
0
0
VERTEX
8
Layer 1
10
-84.330002
20
15.556999
70
0
0
VERTEX
8
Layer 1
10
-84.106003
20
15.512001
70
0
0
SEQEND
8
Layer 1
0
POLYLINE
8
Layer 1
62
10
70
0
10
0.000000
20
0.000000
66
1
0
VERTEX
8
Layer 1
10
-12.453412
20
68.252000
70
0
0
VERTEX
8
Layer 1
10
-12.433000
20
68.234000
70
0
0
VERTEX
8
Layer 1
10
-12.310000
20
68.153000
70
0
0
VERTEX
8
Layer 1
10
-12.288000
20
68.142000
70
0
0
VERTEX
8
Layer 1
10
-12.178000
20
68.087000
70
0
0
VERTEX
8
Layer 1
10
-12.039000
20
68.040000
70
0
0
VERTEX
8
Layer 1
10
-12.000000
20
68.032146
70
0
0
VERTEX
8
Layer 1
10
-11.895000
20
68.011000
70
0
0
VERTEX
8
Layer 1
10
-11.748000
20
68.002000
70
0
0
VERTEX
8
Layer 1
10
-11.601000
20
68.011000
70
0
0
VERTEX
8
Layer 1
10
-11.457000
20
68.040000
70
0
0
VERTEX
8
Layer 1
10
-11.317000
20
68.087000
70
0
0
VERTEX
8
Layer 1
10
-11.264000
20
68.113500
70
0
0
VERTEX
8
Layer 1
10
-11.185000
20
68.153000
70
0
0
VERTEX
8
Layer 1
10
-11.063000
20
68.234000
70
0
0
VERTEX
8
Layer 1
10
-11.042402
20
68.252000
70
0
0
VERTEX
8
Layer 1
10
-10.989243
20
68.298455
70
0
0
VERTEX
8
Layer 1
10
-10.952000
20
68.331000
70
0
0
VERTEX
8
Layer 1
10
-10.887626
20
68.404666
70
0
0
VERTEX
8
Layer 1
10
-10.855000
20
68.442000
70
0
0
VERTEX
8
Layer 1
10
-10.812197
20
68.506470
70
0
0
VERTEX
8
Layer 1
10
-10.774000
20
68.564000
70
0
0
VERTEX
8
Layer 1
10
-10.744929
20
68.623035
70
0
0
VERTEX
8
Layer 1
10
-10.709000
20
68.696000
70
0
0
VERTEX
8
Layer 1
10
-10.698775
20
68.725821
70
0
0
VERTEX
8
Layer 1
10
-10.661344
20
68.834997
70
0
0
VERTEX
8
Layer 1
10
-10.661000
20
68.836000
70
0
0
VERTEX
8
Layer 1
10
-10.643111
20
68.928000
70
0
0
VERTEX
8
Layer 1
10
-10.633000
20
68.980000
70
0
0
VERTEX
8
Layer 1
10
-10.623502
20
69.119628
70
0
0
VERTEX
8
Layer 1
10
-10.623000
20
69.127000
70
0
0
VERTEX
8
Layer 1
10
-10.623000
20
69.250000
70
0
0
VERTEX
8
Layer 1
10
-10.623000
20
69.377000
70
0
0
VERTEX
8
Layer 1
10
-10.633000
20
69.524000
70
0
0
VERTEX
8
Layer 1
10
-10.661000
20
69.668000
70
0
0
VERTEX
8
Layer 1
10
-10.709000
20
69.807000
70
0
0
VERTEX
8
Layer 1
10
-10.774000
20
69.939000
70
0
0
VERTEX
8
Layer 1
10
-10.782561
20
69.952000
70
0
0
VERTEX
8
Layer 1
10
-10.855000
20
70.062000
70
0
0
VERTEX
8
Layer 1
10
-10.952000
20
70.172000
70
0
0
VERTEX
8
Layer 1
10
-11.063000
20
70.269000
70
0
0
VERTEX
8
Layer 1
10
-11.185000
20
70.351000
70
0
0
VERTEX
8
Layer 1
10
-11.317000
20
70.416000
70
0
0
VERTEX
8
Layer 1
10
-11.457000
20
70.464000
70
0
0
VERTEX
8
Layer 1
10
-11.601000
20
70.492000
70
0
0
VERTEX
8
Layer 1
10
-11.748000
20
70.502000
70
0
0
VERTEX
8
Layer 1
10
-11.895000
20
70.492000
70
0
0
VERTEX
8
Layer 1
10
-12.000000
20
70.471583
70
0
0
VERTEX
8
Layer 1
10
-12.039000
20
70.464000
70
0
0
VERTEX
8
Layer 1
10
-12.178000
20
70.416000
70
0
0
VERTEX
8
Layer 1
10
-12.288000
20
70.361833
70
0
0
VERTEX
8
Layer 1
10
-12.310000
20
70.351000
70
0
0
VERTEX
8
Layer 1
10
-12.433000
20
70.269000
70
0
0
VERTEX
8
Layer 1
10
-12.543000
20
70.172000
70
0
0
VERTEX
8
Layer 1
10
-12.641000
20
70.062000
70
0
0
VERTEX
8
Layer 1
10
-12.713439
20
69.952000
70
0
0
VERTEX
8
Layer 1
10
-12.722000
20
69.939000
70
0
0
VERTEX
8
Layer 1
10
-12.787000
20
69.807000
70
0
0
VERTEX
8
Layer 1
10
-12.835000
20
69.668000
70
0
0
VERTEX
8
Layer 1
10
-12.863000
20
69.524000
70
0
0
VERTEX
8
Layer 1
10
-12.873000
20
69.377000
70
0
0
VERTEX
8
Layer 1
10
-12.873000
20
69.250000
70
0
0
VERTEX
8
Layer 1
10
-12.873000
20
69.127000
70
0
0
VERTEX
8
Layer 1
10
-12.863000
20
68.980000
70
0
0
VERTEX
8
Layer 1
10
-12.852889
20
68.928000
70
0
0
VERTEX
8
Layer 1
10
-12.836842
20
68.845471
70
0
0
VERTEX
8
Layer 1
10
-12.835000
20
68.836000
70
0
0
VERTEX
8
Layer 1
10
-12.787000
20
68.696000
70
0
0
VERTEX
8
Layer 1
10
-12.741004
20
68.602593
70
0
0
VERTEX
8
Layer 1
10
-12.722000
20
68.564000
70
0
0
VERTEX
8
Layer 1
10
-12.641000
20
68.442000
70
0
0
VERTEX
8
Layer 1
10
-12.597185
20
68.392373
70
0
0
VERTEX
8
Layer 1
10
-12.543000
20
68.331000
70
0
0
VERTEX
8
Layer 1
10
-12.453412
20
68.252000
70
0
0
SEQEND
8
Layer 1
0
POLYLINE
8
Layer 1
62
10
70
0
10
0.000000
20
0.000000
66
1
0
VERTEX
8
Layer 1
10
-78.399002
20
22.007999
70
0
0
VERTEX
8
Layer 1
10
-78.251999
20
21.998001
70
0
0
VERTEX
8
Layer 1
10
-78.105003
20
22.007999
70
0
0
VERTEX
8
Layer 1
10
-77.960999
20
22.035999
70
0
0
VERTEX
8
Layer 1
10
-77.823997
20
22.083309
70
0
0
VERTEX
8
Layer 1
10
-77.821999
20
22.084000
70
0
0
VERTEX
8
Layer 1
10
-77.690002
20
22.148998
70
0
0
VERTEX
8
Layer 1
10
-77.567001
20
22.230999
70
0
0
VERTEX
8
Layer 1
10
-77.457001
20
22.327999
70
0
0
VERTEX
8
Layer 1
10
-77.359001
20
22.438000
70
0
0
VERTEX
8
Layer 1
10
-77.278000
20
22.561001
70
0
0
VERTEX
8
Layer 1
10
-77.212997
20
22.693001
70
0
0
VERTEX
8
Layer 1
10
-77.165001
20
22.832001
70
0
0
VERTEX
8
Layer 1
10
-77.161888
20
22.848000
70
0
0
VERTEX
8
Layer 1
10
-77.137001
20
22.976002
70
0
0
VERTEX
8
Layer 1
10
-77.126999
20
23.123001
70
0
0
VERTEX
8
Layer 1
10
-77.126999
20
23.192043
70
0
0
VERTEX
8
Layer 1
10
-77.126999
20
23.277428
70
0
0
VERTEX
8
Layer 1
10
-77.126999
20
23.373001
70
0
0
VERTEX
8
Layer 1
10
-77.137001
20
23.520000
70
0
0
VERTEX
8
Layer 1
10
-77.163162
20
23.654530
70
0
0
VERTEX
8
Layer 1
10
-77.165001
20
23.664001
70
0
0
VERTEX
8
Layer 1
10
-77.212997
20
23.804001
70
0
0
VERTEX
8
Layer 1
10
-77.258995
20
23.897408
70
0
0
VERTEX
8
Layer 1
10
-77.278000
20
23.936001
70
0
0
VERTEX
8
Layer 1
10
-77.359001
20
24.057999
70
0
0
VERTEX
8
Layer 1
10
-77.402817
20
24.107628
70
0
0
VERTEX
8
Layer 1
10
-77.457001
20
24.168999
70
0
0
VERTEX
8
Layer 1
10
-77.546585
20
24.248001
70
0
0
VERTEX
8
Layer 1
10
-77.567001
20
24.265999
70
0
0
VERTEX
8
Layer 1
10
-77.690002
20
24.347000
70
0
0
VERTEX
8
Layer 1
10
-77.821999
20
24.412998
70
0
0
VERTEX
8
Layer 1
10
-77.823997
20
24.413677
70
0
0
VERTEX
8
Layer 1
10
-77.960999
20
24.459999
70
0
0
VERTEX
8
Layer 1
10
-78.105003
20
24.488998
70
0
0
VERTEX
8
Layer 1
10
-78.251999
20
24.498001
70
0
0
VERTEX
8
Layer 1
10
-78.399002
20
24.488998
70
0
0
VERTEX
8
Layer 1
10
-78.542999
20
24.459999
70
0
0
VERTEX
8
Layer 1
10
-78.682999
20
24.412998
70
0
0
VERTEX
8
Layer 1
10
-78.815002
20
24.347000
70
0
0
VERTEX
8
Layer 1
10
-78.936996
20
24.265999
70
0
0
VERTEX
8
Layer 1
10
-78.957596
20
24.248001
70
0
0
VERTEX
8
Layer 1
10
-79.047997
20
24.168999
70
0
0
VERTEX
8
Layer 1
10
-79.144997
20
24.057999
70
0
0
VERTEX
8
Layer 1
10
-79.225998
20
23.936001
70
0
0
VERTEX
8
Layer 1
10
-79.257515
20
23.872002
70
0
0
VERTEX
8
Layer 1
10
-79.291000
20
23.804001
70
0
0
VERTEX
8
Layer 1
10
-79.301224
20
23.774178
70
0
0
VERTEX
8
Layer 1
10
-79.338654
20
23.665005
70
0
0
VERTEX
8
Layer 1
10
-79.338997
20
23.664001
70
0
0
VERTEX
8
Layer 1
10
-79.358505
20
23.563679
70
0
0
VERTEX
8
Layer 1
10
-79.366997
20
23.520000
70
0
0
VERTEX
8
Layer 1
10
-79.370514
20
23.468338
70
0
0
VERTEX
8
Layer 1
10
-79.376495
20
23.380371
70
0
0
VERTEX
8
Layer 1
10
-79.376999
20
23.373001
70
0
0
VERTEX
8
Layer 1
10
-79.376999
20
23.303165
70
0
0
VERTEX
8
Layer 1
10
-79.376999
20
23.218571
70
0
0
VERTEX
8
Layer 1
10
-79.376999
20
23.123001
70
0
0
VERTEX
8
Layer 1
10
-79.366997
20
22.976002
70
0
0
VERTEX
8
Layer 1
10
-79.342110
20
22.848000
70
0
0
VERTEX
8
Layer 1
10
-79.338997
20
22.832001
70
0
0
VERTEX
8
Layer 1
10
-79.291000
20
22.693001
70
0
0
VERTEX
8
Layer 1
10
-79.225998
20
22.561001
70
0
0
VERTEX
8
Layer 1
10
-79.144997
20
22.438000
70
0
0
VERTEX
8
Layer 1
10
-79.047997
20
22.327999
70
0
0
VERTEX
8
Layer 1
10
-78.936996
20
22.230999
70
0
0
VERTEX
8
Layer 1
10
-78.815002
20
22.148998
70
0
0
VERTEX
8
Layer 1
10
-78.682999
20
22.084000
70
0
0
VERTEX
8
Layer 1
10
-78.542999
20
22.035999
70
0
0
VERTEX
8
Layer 1
10
-78.399002
20
22.007999
70
0
0
SEQEND
8
Layer 1
0
POLYLINE
8
Layer 1
62
10
70
0
10
0.000000
20
0.000000
66
1
0
VERTEX
8
Layer 1
10
-12.863000
20
23.520000
70
0
0
VERTEX
8
Layer 1
10
-12.873000
20
23.373001
70
0
0
VERTEX
8
Layer 1
10
-12.873000
20
23.123001
70
0
0
VERTEX
8
Layer 1
10
-12.863000
20
22.976002
70
0
0
VERTEX
8
Layer 1
10
-12.838111
20
22.848000
70
0
0
VERTEX
8
Layer 1
10
-12.835000
20
22.832001
70
0
0
VERTEX
8
Layer 1
10
-12.787000
20
22.693001
70
0
0
VERTEX
8
Layer 1
10
-12.722000
20
22.561001
70
0
0
VERTEX
8
Layer 1
10
-12.641000
20
22.438000
70
0
0
VERTEX
8
Layer 1
10
-12.543000
20
22.327999
70
0
0
VERTEX
8
Layer 1
10
-12.452278
20
22.248001
70
0
0
VERTEX
8
Layer 1
10
-12.433000
20
22.230999
70
0
0
VERTEX
8
Layer 1
10
-12.310000
20
22.148998
70
0
0
VERTEX
8
Layer 1
10
-12.288000
20
22.138168
70
0
0
VERTEX
8
Layer 1
10
-12.178000
20
22.084000
70
0
0
VERTEX
8
Layer 1
10
-12.039000
20
22.035999
70
0
0
VERTEX
8
Layer 1
10
-12.000000
20
22.028416
70
0
0
VERTEX
8
Layer 1
10
-11.895000
20
22.007999
70
0
0
VERTEX
8
Layer 1
10
-11.748000
20
21.998001
70
0
0
VERTEX
8
Layer 1
10
-11.601000
20
22.007999
70
0
0
VERTEX
8
Layer 1
10
-11.457000
20
22.035999
70
0
0
VERTEX
8
Layer 1
10
-11.317000
20
22.084000
70
0
0
VERTEX
8
Layer 1
10
-11.264000
20
22.110100
70
0
0
VERTEX
8
Layer 1
10
-11.185000
20
22.148998
70
0
0
VERTEX
8
Layer 1
10
-11.063000
20
22.230999
70
0
0
VERTEX
8
Layer 1
10
-11.043547
20
22.248001
70
0
0
VERTEX
8
Layer 1
10
-10.984078
20
22.299969
70
0
0
VERTEX
8
Layer 1
10
-10.952000
20
22.327999
70
0
0
VERTEX
8
Layer 1
10
-10.892192
20
22.395824
70
0
0
VERTEX
8
Layer 1
10
-10.855000
20
22.438000
70
0
0
VERTEX
8
Layer 1
10
-10.808728
20
22.508266
70
0
0
VERTEX
8
Layer 1
10
-10.774000
20
22.561001
70
0
0
VERTEX
8
Layer 1
10
-10.747746
20
22.614315
70
0
0
VERTEX
8
Layer 1
10
-10.709000
20
22.693001
70
0
0
VERTEX
8
Layer 1
10
-10.697337
20
22.726772
70
0
0
VERTEX
8
Layer 1
10
-10.661000
20
22.832001
70
0
0
VERTEX
8
Layer 1
10
-10.660931
20
22.832359
70
0
0
VERTEX
8
Layer 1
10
-10.657888
20
22.848000
70
0
0
VERTEX
8
Layer 1
10
-10.638468
20
22.947876
70
0
0
VERTEX
8
Layer 1
10
-10.633000
20
22.976002
70
0
0
VERTEX
8
Layer 1
10
-10.623423
20
23.116787
70
0
0
VERTEX
8
Layer 1
10
-10.623000
20
23.123001
70
0
0
VERTEX
8
Layer 1
10
-10.623000
20
23.250000
70
0
0
VERTEX
8
Layer 1
10
-10.623000
20
23.373001
70
0
0
VERTEX
8
Layer 1
10
-10.633000
20
23.520000
70
0
0
VERTEX
8
Layer 1
10
-10.661000
20
23.664001
70
0
0
VERTEX
8
Layer 1
10
-10.709000
20
23.804001
70
0
0
VERTEX
8
Layer 1
10
-10.774000
20
23.936001
70
0
0
VERTEX
8
Layer 1
10
-10.855000
20
24.057999
70
0
0
VERTEX
8
Layer 1
10
-10.952000
20
24.168999
70
0
0
VERTEX
8
Layer 1
10
-11.063000
20
24.265999
70
0
0
VERTEX
8
Layer 1
10
-11.185000
20
24.347000
70
0
0
VERTEX
8
Layer 1
10
-11.264000
20
24.386501
70
0
0
VERTEX
8
Layer 1
10
-11.317000
20
24.412998
70
0
0
VERTEX
8
Layer 1
10
-11.457000
20
24.459999
70
0
0
VERTEX
8
Layer 1
10
-11.601000
20
24.488998
70
0
0
VERTEX
8
Layer 1
10
-11.748000
20
24.498001
70
0
0
VERTEX
8
Layer 1
10
-11.895000
20
24.488998
70
0
0
VERTEX
8
Layer 1
10
-12.000000
20
24.467854
70
0
0
VERTEX
8
Layer 1
10
-12.039000
20
24.459999
70
0
0
VERTEX
8
Layer 1
10
-12.178000
20
24.412998
70
0
0
VERTEX
8
Layer 1
10
-12.288000
20
24.358002
70
0
0
VERTEX
8
Layer 1
10
-12.310000
20
24.347000
70
0
0
VERTEX
8
Layer 1
10
-12.433000
20
24.265999
70
0
0
VERTEX
8
Layer 1
10
-12.543000
20
24.168999
70
0
0
VERTEX
8
Layer 1
10
-12.641000
20
24.057999
70
0
0
VERTEX
8
Layer 1
10
-12.722000
20
23.936001
70
0
0
VERTEX
8
Layer 1
10
-12.787000
20
23.804001
70
0
0
VERTEX
8
Layer 1
10
-12.835000
20
23.664001
70
0
0
VERTEX
8
Layer 1
10
-12.863000
20
23.520000
70
0
0
SEQEND
8
Layer 1
0
POLYLINE
8
Layer 1
62
10
70
0
10
0.000000
20
0.000000
66
1
0
VERTEX
8
Layer 1
10
-84.106003
20
73.517000
70
0
0
VERTEX
8
Layer 1
10
-83.968002
20
73.507961
70
0
0
VERTEX
8
Layer 1
10
-83.876999
20
73.502000
70
0
0
VERTEX
8
Layer 1
10
-83.649002
20
73.517000
70
0
0
VERTEX
8
Layer 1
10
-83.424004
20
73.562000
70
0
0
VERTEX
8
Layer 1
10
-83.208000
20
73.635000
70
0
0
VERTEX
8
Layer 1
10
-83.001999
20
73.737000
70
0
0
VERTEX
8
Layer 1
10
-82.811996
20
73.864000
70
0
0
VERTEX
8
Layer 1
10
-82.639999
20
74.015000
70
0
0
VERTEX
8
Layer 1
10
-82.611031
20
74.048000
70
0
0
VERTEX
8
Layer 1
10
-82.488998
20
74.187000
70
0
0
VERTEX
8
Layer 1
10
-82.362000
20
74.377000
70
0
0
VERTEX
8
Layer 1
10
-82.261002
20
74.583000
70
0
0
VERTEX
8
Layer 1
10
-82.186996
20
74.799000
70
0
0
VERTEX
8
Layer 1
10
-82.141998
20
75.024000
70
0
0
VERTEX
8
Layer 1
10
-82.126999
20
75.252000
70
0
0
VERTEX
8
Layer 1
10
-82.141998
20
75.481000
70
0
0
VERTEX
8
Layer 1
10
-82.186996
20
75.705000
70
0
0
VERTEX
8
Layer 1
10
-82.261002
20
75.922000
70
0
0
VERTEX
8
Layer 1
10
-82.346725
20
76.096000
70
0
0
VERTEX
8
Layer 1
10
-82.362000
20
76.127000
70
0
0
VERTEX
8
Layer 1
10
-82.488998
20
76.318000
70
0
0
VERTEX
8
Layer 1
10
-82.639999
20
76.490000
70
0
0
VERTEX
8
Layer 1
10
-82.811996
20
76.641000
70
0
0
VERTEX
8
Layer 1
10
-83.001999
20
76.768000
70
0
0
VERTEX
8
Layer 1
10
-83.208000
20
76.869000
70
0
0
VERTEX
8
Layer 1
10
-83.424004
20
76.943000
70
0
0
VERTEX
8
Layer 1
10
-83.649002
20
76.988000
70
0
0
VERTEX
8
Layer 1
10
-83.876999
20
77.003000
70
0
0
VERTEX
8
Layer 1
10
-83.968002
20
76.997039
70
0
0
VERTEX
8
Layer 1
10
-84.106003
20
76.988000
70
0
0
VERTEX
8
Layer 1
10
-84.330002
20
76.943000
70
0
0
VERTEX
8
Layer 1
10
-84.546997
20
76.869000
70
0
0
VERTEX
8
Layer 1
10
-84.751999
20
76.768000
70
0
0
VERTEX
8
Layer 1
10
-84.943001
20
76.641000
70
0
0
VERTEX
8
Layer 1
10
-85.114998
20
76.490000
70
0
0
VERTEX
8
Layer 1
10
-85.265999
20
76.318000
70
0
0
VERTEX
8
Layer 1
10
-85.392998
20
76.127000
70
0
0
VERTEX
8
Layer 1
10
-85.408272
20
76.096000
70
0
0
VERTEX
8
Layer 1
10
-85.494003
20
75.922000
70
0
0
VERTEX
8
Layer 1
10
-85.568001
20
75.705000
70
0
0
VERTEX
8
Layer 1
10
-85.612999
20
75.481000
70
0
0
VERTEX
8
Layer 1
10
-85.627998
20
75.252000
70
0
0
VERTEX
8
Layer 1
10
-85.612999
20
75.024000
70
0
0
VERTEX
8
Layer 1
10
-85.568001
20
74.799000
70
0
0
VERTEX
8
Layer 1
10
-85.494003
20
74.583000
70
0
0
VERTEX
8
Layer 1
10
-85.392998
20
74.377000
70
0
0
VERTEX
8
Layer 1
10
-85.265999
20
74.187000
70
0
0
VERTEX
8
Layer 1
10
-85.143974
20
74.048000
70
0
0
VERTEX
8
Layer 1
10
-85.114998
20
74.015000
70
0
0
VERTEX
8
Layer 1
10
-84.943001
20
73.864000
70
0
0
VERTEX
8
Layer 1
10
-84.751999
20
73.737000
70
0
0
VERTEX
8
Layer 1
10
-84.546997
20
73.635000
70
0
0
VERTEX
8
Layer 1
10
-84.330002
20
73.562000
70
0
0
VERTEX
8
Layer 1
10
-84.106003
20
73.517000
70
0
0
SEQEND
8
Layer 1
0
POLYLINE
8
Layer 1
62
10
70
0
10
0.000000
20
0.000000
66
1
0
VERTEX
8
Layer 1
10
-6.144000
20
73.503382
70
0
0
VERTEX
8
Layer 1
10
-6.123000
20
73.502000
70
0
0
VERTEX
8
Layer 1
10
-5.894000
20
73.517000
70
0
0
VERTEX
8
Layer 1
10
-5.670000
20
73.562000
70
0
0
VERTEX
8
Layer 1
10
-5.453000
20
73.635000
70
0
0
VERTEX
8
Layer 1
10
-5.248000
20
73.737000
70
0
0
VERTEX
8
Layer 1
10
-5.057000
20
73.864000
70
0
0
VERTEX
8
Layer 1
10
-4.885000
20
74.015000
70
0
0
VERTEX
8
Layer 1
10
-4.856029
20
74.048000
70
0
0
VERTEX
8
Layer 1
10
-4.734000
20
74.187000
70
0
0
VERTEX
8
Layer 1
10
-4.607000
20
74.377000
70
0
0
VERTEX
8
Layer 1
10
-4.506000
20
74.583000
70
0
0
VERTEX
8
Layer 1
10
-4.432000
20
74.799000
70
0
0
VERTEX
8
Layer 1
10
-4.387000
20
75.024000
70
0
0
VERTEX
8
Layer 1
10
-4.373000
20
75.252000
70
0
0
VERTEX
8
Layer 1
10
-4.387000
20
75.481000
70
0
0
VERTEX
8
Layer 1
10
-4.432000
20
75.705000
70
0
0
VERTEX
8
Layer 1
10
-4.506000
20
75.922000
70
0
0
VERTEX
8
Layer 1
10
-4.591727
20
76.096000
70
0
0
VERTEX
8
Layer 1
10
-4.607000
20
76.127000
70
0
0
VERTEX
8
Layer 1
10
-4.734000
20
76.318000
70
0
0
VERTEX
8
Layer 1
10
-4.885000
20
76.490000
70
0
0
VERTEX
8
Layer 1
10
-5.057000
20
76.641000
70
0
0
VERTEX
8
Layer 1
10
-5.248000
20
76.768000
70
0
0
VERTEX
8
Layer 1
10
-5.453000
20
76.869000
70
0
0
VERTEX
8
Layer 1
10
-5.670000
20
76.943000
70
0
0
VERTEX
8
Layer 1
10
-5.894000
20
76.988000
70
0
0
VERTEX
8
Layer 1
10
-6.123000
20
77.003000
70
0
0
VERTEX
8
Layer 1
10
-6.144000
20
77.001618
70
0
0
VERTEX
8
Layer 1
10
-6.351000
20
76.988000
70
0
0
VERTEX
8
Layer 1
10
-6.576000
20
76.943000
70
0
0
VERTEX
8
Layer 1
10
-6.792000
20
76.869000
70
0
0
VERTEX
8
Layer 1
10
-6.998000
20
76.768000
70
0
0
VERTEX
8
Layer 1
10
-7.188000
20
76.641000
70
0
0
VERTEX
8
Layer 1
10
-7.360000
20
76.490000
70
0
0
VERTEX
8
Layer 1
10
-7.511000
20
76.318000
70
0
0
VERTEX
8
Layer 1
10
-7.638000
20
76.127000
70
0
0
VERTEX
8
Layer 1
10
-7.653273
20
76.096000
70
0
0
VERTEX
8
Layer 1
10
-7.739000
20
75.922000
70
0
0
VERTEX
8
Layer 1
10
-7.813000
20
75.705000
70
0
0
VERTEX
8
Layer 1
10
-7.858000
20
75.481000
70
0
0
VERTEX
8
Layer 1
10
-7.873000
20
75.252000
70
0
0
VERTEX
8
Layer 1
10
-7.858000
20
75.024000
70
0
0
VERTEX
8
Layer 1
10
-7.813000
20
74.799000
70
0
0
VERTEX
8
Layer 1
10
-7.739000
20
74.583000
70
0
0
VERTEX
8
Layer 1
10
-7.638000
20
74.377000
70
0
0
VERTEX
8
Layer 1
10
-7.511000
20
74.187000
70
0
0
VERTEX
8
Layer 1
10
-7.388971
20
74.048000
70
0
0
VERTEX
8
Layer 1
10
-7.360000
20
74.015000
70
0
0
VERTEX
8
Layer 1
10
-7.188000
20
73.864000
70
0
0
VERTEX
8
Layer 1
10
-6.998000
20
73.737000
70
0
0
VERTEX
8
Layer 1
10
-6.792000
20
73.635000
70
0
0
VERTEX
8
Layer 1
10
-6.576000
20
73.562000
70
0
0
VERTEX
8
Layer 1
10
-6.351000
20
73.517000
70
0
0
VERTEX
8
Layer 1
10
-6.144000
20
73.503382
70
0
0
SEQEND
8
Layer 1
0
POLYLINE
8
Layer 1
62
10
70
0
10
0.000000
20
0.000000
66
1
0
VERTEX
8
Layer 1
10
-6.144000
20
15.498383
70
0
0
VERTEX
8
Layer 1
10
-6.123000
20
15.497002
70
0
0
VERTEX
8
Layer 1
10
-5.894000
20
15.512001
70
0
0
VERTEX
8
Layer 1
10
-5.670000
20
15.556999
70
0
0
VERTEX
8
Layer 1
10
-5.453000
20
15.631001
70
0
0
VERTEX
8
Layer 1
10
-5.248000
20
15.731998
70
0
0
VERTEX
8
Layer 1
10
-5.057000
20
15.859001
70
0
0
VERTEX
8
Layer 1
10
-4.885000
20
16.009998
70
0
0
VERTEX
8
Layer 1
10
-4.734000
20
16.181999
70
0
0
VERTEX
8
Layer 1
10
-4.607000
20
16.373001
70
0
0
VERTEX
8
Layer 1
10
-4.506000
20
16.577999
70
0
0
VERTEX
8
Layer 1
10
-4.463032
20
16.703999
70
0
0
VERTEX
8
Layer 1
10
-4.432000
20
16.794998
70
0
0
VERTEX
8
Layer 1
10
-4.387000
20
17.019001
70
0
0
VERTEX
8
Layer 1
10
-4.373000
20
17.248001
70
0
0
VERTEX
8
Layer 1
10
-4.387000
20
17.476002
70
0
0
VERTEX
8
Layer 1
10
-4.432000
20
17.701000
70
0
0
VERTEX
8
Layer 1
10
-4.506000
20
17.917000
70
0
0
VERTEX
8
Layer 1
10
-4.607000
20
18.123001
70
0
0
VERTEX
8
Layer 1
10
-4.734000
20
18.313000
70
0
0
VERTEX
8
Layer 1
10
-4.885000
20
18.485001
70
0
0
VERTEX
8
Layer 1
10
-5.057000
20
18.636002
70
0
0
VERTEX
8
Layer 1
10
-5.231457
20
18.751999
70
0
0
VERTEX
8
Layer 1
10
-5.248000
20
18.763000
70
0
0
VERTEX
8
Layer 1
10
-5.453000
20
18.865002
70
0
0
VERTEX
8
Layer 1
10
-5.670000
20
18.938000
70
0
0
VERTEX
8
Layer 1
10
-5.894000
20
18.983002
70
0
0
VERTEX
8
Layer 1
10
-6.123000
20
18.998001
70
0
0
VERTEX
8
Layer 1
10
-6.351000
20
18.983002
70
0
0
VERTEX
8
Layer 1
10
-6.576000
20
18.938000
70
0
0
VERTEX
8
Layer 1
10
-6.792000
20
18.865002
70
0
0
VERTEX
8
Layer 1
10
-6.998000
20
18.763000
70
0
0
VERTEX
8
Layer 1
10
-7.014457
20
18.751999
70
0
0
VERTEX
8
Layer 1
10
-7.188000
20
18.636002
70
0
0
VERTEX
8
Layer 1
10
-7.360000
20
18.485001
70
0
0
VERTEX
8
Layer 1
10
-7.511000
20
18.313000
70
0
0
VERTEX
8
Layer 1
10
-7.638000
20
18.123001
70
0
0
VERTEX
8
Layer 1
10
-7.739000
20
17.917000
70
0
0
VERTEX
8
Layer 1
10
-7.813000
20
17.701000
70
0
0
VERTEX
8
Layer 1
10
-7.858000
20
17.476002
70
0
0
VERTEX
8
Layer 1
10
-7.873000
20
17.248001
70
0
0
VERTEX
8
Layer 1
10
-7.858000
20
17.019001
70
0
0
VERTEX
8
Layer 1
10
-7.813000
20
16.794998
70
0
0
VERTEX
8
Layer 1
10
-7.781968
20
16.703999
70
0
0
VERTEX
8
Layer 1
10
-7.739000
20
16.577999
70
0
0
VERTEX
8
Layer 1
10
-7.638000
20
16.373001
70
0
0
VERTEX
8
Layer 1
10
-7.511000
20
16.181999
70
0
0
VERTEX
8
Layer 1
10
-7.360000
20
16.009998
70
0
0
VERTEX
8
Layer 1
10
-7.188000
20
15.859001
70
0
0
VERTEX
8
Layer 1
10
-6.998000
20
15.731998
70
0
0
VERTEX
8
Layer 1
10
-6.792000
20
15.631001
70
0
0
VERTEX
8
Layer 1
10
-6.576000
20
15.556999
70
0
0
VERTEX
8
Layer 1
10
-6.351000
20
15.512001
70
0
0
VERTEX
8
Layer 1
10
-6.144000
20
15.498383
70
0
0
VERTEX
8
Layer 1
10
-6.144000
20
15.498383
70
0
0
SEQEND
8
Layer 1
 0 
ENDSEC
 0 
EOF